<svg version="1.1" id="Layer_1" xmlns="http://www.w3.org/2000/svg" xmlns:xlink="http://www.w3.org/1999/xlink" x="0px" y="0px"
	 width="100%" viewBox="0 0 500 211" enable-background="new 0 0 500 211" xml:space="preserve">
<path fill="#000001" opacity="1.000000" stroke="none" 
	d="
M383.000000,212.000000 
	C255.333359,212.000000 128.166718,212.000000 1.000051,212.000000 
	C1.000034,141.666702 1.000034,71.333405 1.000017,1.000079 
	C167.666611,1.000053 334.333221,1.000053 500.999878,1.000026 
	C500.999908,71.333260 500.999908,141.666519 500.999939,211.999878 
	C461.833344,212.000000 422.666656,212.000000 383.000000,212.000000 
M197.799500,110.615768 
	C197.448441,110.466324 197.097382,110.316879 196.714371,110.193657 
	C196.714371,110.193657 196.681061,110.218033 196.912979,109.535019 
	C195.571045,107.902519 194.466171,105.967773 192.842606,104.694313 
	C188.009338,100.903282 182.885803,97.481400 178.069550,93.670288 
	C176.690979,92.579414 175.393387,90.767303 175.069427,89.090622 
	C174.380859,85.526764 174.224167,81.839874 174.080795,78.194321 
	C173.315186,58.728138 167.185349,41.316502 153.837204,26.917870 
	C144.873947,17.249205 134.042236,10.489617 120.438538,10.096979 
	C99.992966,9.506866 86.260391,20.681858 76.621162,37.286774 
	C68.915123,50.561527 65.660789,65.356567 64.887177,80.708580 
	C64.788437,82.667953 63.667694,85.380920 62.140354,86.333069 
	C51.924004,92.701927 42.389545,99.793648 34.445724,108.944664 
	C21.348627,124.032097 14.592636,141.427216 17.293238,161.351944 
	C20.365690,184.020126 37.359520,198.339966 62.609715,199.836716 
	C78.813530,200.797241 93.766228,195.567871 107.874199,187.958908 
	C111.369377,186.073807 114.327911,185.787735 118.185188,187.347183 
	C126.646095,190.767822 135.257538,194.000427 144.064896,196.341537 
	C162.453934,201.229553 180.333939,199.746719 196.980652,189.856064 
	C199.046356,188.628754 200.446045,186.280533 202.410065,184.123520 
	C202.627182,183.757767 202.844299,183.392014 203.619751,182.819946 
	C204.650467,181.915924 205.681183,181.011887 207.476532,180.120132 
	C207.948700,179.367432 208.420883,178.614731 208.941422,177.971588 
	C208.941422,177.971588 208.849487,177.894821 209.558029,177.952774 
	C210.880127,176.295395 212.554199,174.811432 213.469543,172.953644 
	C222.033936,155.571518 218.841110,139.043900 209.341934,123.173790 
	C208.116470,121.126419 205.708725,119.786720 203.938950,117.988441 
	C203.938950,117.988441 203.873123,118.132576 204.069473,117.400734 
	C202.297394,115.672218 200.525314,113.943695 198.843491,112.146057 
	C198.843491,112.146057 198.826645,112.258469 198.797592,111.649460 
	C198.458191,111.474297 198.118774,111.299141 197.890533,111.109810 
	C197.890533,111.109810 197.875778,111.220901 197.799500,110.615768 
M240.563248,51.783588 
	C238.275299,59.137585 235.987366,66.491585 233.295227,75.144768 
	C230.965637,67.741905 229.012070,61.608643 227.106750,55.460419 
	C224.756897,47.877617 224.774277,47.872231 216.517303,49.483536 
	C220.718506,62.289726 224.905334,75.052094 229.048569,87.681595 
	C232.066223,87.681595 234.822968,87.681595 237.464111,87.681595 
	C240.101837,79.341782 242.634171,71.335228 245.456833,62.410751 
	C248.354065,71.569298 250.939941,79.743546 253.489487,87.802994 
	C256.527069,87.802994 259.148407,87.802994 261.829559,87.802994 
	C266.061066,74.883423 270.235962,62.136581 274.437103,49.309689 
	C266.068604,48.184010 266.082062,48.188217 263.750977,55.648586 
	C261.833130,61.786423 259.878387,67.912727 257.607788,75.094963 
	C254.634430,65.603828 252.020004,57.258434 249.057312,47.801323 
	C246.023773,48.982845 243.434891,49.991177 240.563248,51.783588 
M458.273499,76.122368 
	C461.642334,72.009079 465.011169,67.895790 469.281677,62.681564 
	C469.281677,72.003784 469.281677,79.761017 469.281677,87.655777 
	C472.331818,87.655777 475.015686,87.655777 477.614258,87.655777 
	C477.614258,74.551842 477.614258,61.805931 477.614258,49.377148 
	C472.234131,47.463608 468.891602,49.578835 466.043213,53.781410 
	C463.304901,57.821602 459.996338,61.475281 456.786652,65.488441 
	C453.310181,61.161663 449.992371,57.600040 447.351898,53.592175 
	C444.504242,49.269798 441.051025,47.713589 435.975800,49.346497 
	C435.975800,62.060135 435.975800,74.800262 435.975800,87.768631 
	C438.713989,87.768631 441.272400,87.768631 444.421051,87.768631 
	C444.421051,79.606247 444.421051,71.671509 444.421051,62.679199 
	C448.416290,67.631889 451.584564,71.683823 454.926544,75.587044 
	C455.524353,76.285255 456.840515,76.368401 458.273499,76.122368 
M382.861176,66.732590 
	C382.839996,76.994728 387.379761,84.095070 396.099976,87.438507 
	C404.475403,90.649742 414.008453,88.523369 419.952301,82.118195 
	C425.739410,75.881973 426.979156,66.408592 422.984375,58.948898 
	C418.806915,51.148083 409.907990,46.836998 400.643066,48.125660 
	C391.453857,49.403786 384.734650,56.132088 382.861176,66.732590 
M367.894257,83.463005 
	C374.315460,77.907097 376.509521,70.978653 374.182709,62.839611 
	C371.944550,55.010517 366.294464,50.379311 358.536713,49.281731 
	C352.572693,48.437931 346.393677,49.113651 340.205566,49.113651 
	C340.205566,62.120228 340.205566,74.853462 340.205566,88.117477 
	C349.507721,87.308189 359.033783,90.158600 367.894257,83.463005 
M318.842682,64.831100 
	C317.299469,64.216171 315.545380,63.878365 314.271698,62.909210 
	C312.970856,61.919418 312.141632,60.309860 311.105927,58.971626 
	C312.597595,57.905453 314.115234,55.923462 315.575500,55.964886 
	C318.560852,56.049568 321.515411,57.221954 324.021667,57.833836 
	C325.693268,56.378613 327.513519,54.793976 329.497742,53.066612 
	C324.286957,48.229740 318.345734,47.004410 311.809265,48.551353 
	C306.196533,49.879684 302.723267,53.764908 302.223816,58.753864 
	C301.756378,63.423119 304.456329,67.512825 309.831604,69.900520 
	C312.558685,71.111908 315.575836,71.737526 318.165405,73.165535 
	C319.672211,73.996475 320.592438,75.891159 321.776581,77.307198 
	C320.047211,78.567352 318.265503,80.937424 316.599304,80.858803 
	C313.025543,80.690178 309.511414,79.257721 305.206848,78.144684 
	C304.250214,79.065865 302.496460,80.754677 300.603607,82.577400 
	C304.917999,87.159233 309.988800,88.843941 315.655609,88.900360 
	C323.362976,88.977112 329.126678,84.935692 330.410278,78.766304 
	C331.659698,72.761421 328.579132,68.567444 320.530853,65.325310 
	C320.223969,65.201698 319.897858,65.125931 318.842682,64.831100 
M282.981598,52.828026 
	C282.981598,64.430618 282.981598,76.033218 282.981598,87.814728 
	C285.970276,87.814728 288.542358,87.814728 291.206238,87.814728 
	C291.206238,74.749443 291.206238,61.900021 291.206238,48.807648 
	C289.037842,48.807648 287.113342,48.441628 285.449799,48.942425 
	C284.421753,49.251915 283.790863,50.880711 282.981598,52.828026 
M415.986359,128.285980 
	C415.986359,126.163727 415.986359,124.041473 415.986359,121.148979 
	C412.431000,121.440933 409.421967,121.688026 406.412964,121.935112 
	C406.456116,122.493820 406.499237,123.052521 406.542389,123.611229 
	C408.365784,123.894493 410.189178,124.177757 411.921661,124.446899 
	C411.973541,124.925621 412.063232,125.128654 411.998779,125.249565 
	C409.896729,129.194565 405.726410,130.571106 402.063110,128.542633 
	C398.208374,126.408150 396.884796,120.423157 399.327850,116.174416 
	C401.522125,112.358376 405.899780,111.287109 409.614532,113.526070 
	C411.136414,114.443321 412.834961,115.067398 414.453156,115.824837 
	C414.615936,115.381744 414.778748,114.938644 414.941528,114.495552 
	C409.589691,108.728882 403.848114,107.755867 399.018311,111.797112 
	C394.481049,115.593552 393.635529,123.148285 397.191895,128.116394 
	C400.622437,132.908829 406.150208,133.395493 412.266479,129.692993 
	C413.175842,130.520599 413.994659,131.265823 414.813507,132.011032 
	C415.204132,131.062881 415.594727,130.114716 415.986359,128.285980 
M438.094147,109.881927 
	C437.365387,110.554428 435.890442,111.580826 436.016998,111.847649 
	C439.152893,118.459480 438.193817,124.965118 435.682678,131.762329 
	C440.852844,131.762329 445.919983,131.762329 451.482880,131.762329 
	C451.482880,130.169022 451.748413,128.639114 451.349091,127.308792 
	C451.194489,126.793716 449.534393,126.730553 448.560150,126.461517 
	C447.455933,131.666534 443.837433,128.605255 440.977600,129.179779 
	C440.977600,126.627220 440.977600,124.549324 440.977600,122.326248 
	C443.195312,122.093719 445.176819,121.885963 447.158325,121.678207 
	C447.214233,121.191879 447.270172,120.705551 447.326080,120.219223 
	C445.218353,119.704887 443.110596,119.190544 441.126495,118.706383 
	C441.126495,116.606087 441.126495,114.706978 441.126495,112.583786 
	C444.130096,113.068214 447.747009,110.655106 448.610962,115.501511 
	C449.560760,115.181259 451.158508,115.060265 451.330505,114.500847 
	C451.735504,113.183678 451.460327,111.657349 451.460327,109.879845 
	C446.916412,109.879845 442.943054,109.879845 438.094147,109.881927 
M265.750305,132.032379 
	C268.569458,131.921158 271.579376,132.411636 274.173096,131.589310 
	C283.028900,128.781555 274.278870,120.787354 278.199829,116.123276 
	C278.605469,115.640778 275.879791,110.939064 274.048920,110.494743 
	C270.277802,109.579559 266.129333,110.219421 261.586700,110.219421 
	C264.940491,114.010788 265.009766,127.012352 262.180908,131.302414 
	C262.410797,131.491623 262.619934,131.800354 262.878540,131.849716 
	C263.524475,131.973022 264.192932,131.978500 265.750305,132.032379 
M310.053528,120.746910 
	C314.133392,115.978401 313.329895,111.008423 308.082581,110.185448 
	C304.479187,109.620308 300.715485,110.077095 296.908600,110.077095 
	C300.020020,117.700737 299.797119,124.644821 297.117767,131.736847 
	C299.402435,131.736847 301.633453,131.736847 303.408264,131.736847 
	C302.804993,128.471375 302.229156,125.354370 301.667236,122.312508 
	C307.734985,120.991005 308.443237,124.554214 309.129578,128.161575 
	C309.727142,131.302460 310.905670,133.388245 314.439667,131.303802 
	C312.816925,127.850922 311.323395,124.673035 310.053528,120.746910 
M377.850220,122.995537 
	C378.173370,112.141472 370.233643,106.986221 359.420380,110.768059 
	C362.037872,117.757645 361.971954,124.675407 359.296875,131.610489 
	C370.581940,133.156937 374.473206,131.496536 377.850220,122.995537 
M338.264954,109.913765 
	C336.557861,109.913765 334.850739,109.913765 333.010712,109.913765 
	C336.141449,117.668724 335.977020,124.609146 333.209045,131.715347 
	C335.495819,131.715347 337.713409,131.715347 339.314178,131.715347 
	C338.872101,128.375565 338.126526,125.297035 338.140900,122.222084 
	C338.160065,118.141014 338.772400,114.062737 338.264954,109.913765 
z"/>
<path fill="#040F62" opacity="1.000000" stroke="none" 
	d="
M202.154343,184.451706 
	C200.446045,186.280533 199.046356,188.628754 196.980652,189.856064 
	C180.333939,199.746719 162.453934,201.229553 144.064896,196.341537 
	C135.257538,194.000427 126.646095,190.767822 118.185188,187.347183 
	C114.327911,185.787735 111.369377,186.073807 107.874199,187.958908 
	C93.766228,195.567871 78.813530,200.797241 62.609715,199.836716 
	C37.359520,198.339966 20.365690,184.020126 17.293238,161.351944 
	C14.592636,141.427216 21.348627,124.032097 34.445724,108.944664 
	C42.389545,99.793648 51.924004,92.701927 62.140354,86.333069 
	C63.667694,85.380920 64.788437,82.667953 64.887177,80.708580 
	C65.660789,65.356567 68.915123,50.561527 76.621162,37.286774 
	C86.260391,20.681858 99.992966,9.506866 120.438538,10.096979 
	C134.042236,10.489617 144.873947,17.249205 153.837204,26.917870 
	C167.185349,41.316502 173.315186,58.728138 174.080795,78.194321 
	C174.224167,81.839874 174.380859,85.526764 175.069427,89.090622 
	C175.393387,90.767303 176.690979,92.579414 178.069550,93.670288 
	C182.885803,97.481400 188.009338,100.903282 192.842606,104.694313 
	C194.466171,105.967773 195.571045,107.902519 196.489227,109.829681 
	C195.472290,110.007523 194.879120,109.890694 194.282501,109.786911 
	C194.279068,109.799950 194.262024,109.812439 194.124619,109.512283 
	C193.358978,109.063416 192.730759,108.914696 191.981171,108.463844 
	C190.640457,106.739662 189.421127,105.317619 188.186523,103.626556 
	C187.726486,103.072289 187.281754,102.787041 186.743195,102.383606 
	C186.649384,102.265411 186.357819,102.187492 186.194275,101.927185 
	C175.133087,93.595230 163.166916,87.633072 150.204254,83.700287 
	C148.517899,83.188660 146.641891,83.302162 144.488525,83.004417 
	C133.437637,79.127876 122.494141,77.168434 110.720093,78.102463 
	C108.536171,78.366302 106.761208,78.672508 104.561325,78.983673 
	C94.954445,79.620117 94.953751,79.620125 95.006630,88.679329 
	C95.012436,89.673714 94.961563,90.674767 95.056282,91.661270 
	C95.716591,98.538544 96.647606,99.052582 103.404999,96.102814 
	C106.196312,95.779671 108.574638,95.460289 110.965355,95.431946 
	C110.973305,96.111732 110.968864,96.500481 110.590698,96.945465 
	C108.105194,97.617264 105.993408,98.232834 103.490547,98.881256 
	C99.835365,99.594452 95.796021,99.186989 97.710709,104.951347 
	C99.610497,110.670845 99.542847,110.874680 107.445129,108.059235 
	C117.947258,108.197311 128.167099,107.314362 138.041916,108.770760 
	C153.877426,111.106293 167.311157,119.180061 179.255020,130.169174 
	C182.408371,134.987839 185.798767,139.293533 188.448761,144.014816 
	C193.264053,152.593918 190.954407,161.471451 182.103485,165.694153 
	C176.896164,168.178513 170.735611,168.664902 164.718048,169.774475 
	C157.569565,167.701782 150.678574,166.004120 143.854462,164.070511 
	C139.650482,162.879333 136.122498,165.405701 135.987595,170.301941 
	C135.983826,170.778259 135.980591,170.968765 135.616302,171.143341 
	C129.295349,175.505402 123.335449,179.883408 116.438026,184.950073 
	C122.948601,187.202698 128.461197,189.110016 134.318253,191.174866 
	C142.891525,194.472244 151.417084,194.339523 160.327271,193.682678 
	C161.107620,193.711227 161.555695,193.686768 162.316467,193.794022 
	C163.078552,193.984467 163.527924,194.043198 163.838562,194.407318 
	C163.537872,195.344498 163.375961,195.976318 163.214050,196.608124 
	C164.999054,196.693527 166.812103,197.024689 168.564560,196.824829 
	C180.755875,195.434525 192.056580,191.558304 202.154343,184.451706 
M162.068359,43.024399 
	C162.068359,43.024399 162.120361,42.981091 162.149155,42.257263 
	C156.936249,32.078724 149.374268,24.073080 139.652161,18.111570 
	C128.049561,10.996974 115.991135,9.973627 103.464851,15.551892 
	C84.095406,24.177584 74.656845,40.221706 70.018974,60.486195 
	C70.037338,60.658089 70.055710,60.829979 69.883240,61.386269 
	C69.883240,61.386269 69.911774,61.814480 69.595245,62.102482 
	C69.410904,62.368916 69.405457,62.638924 69.272041,63.569103 
	C69.247299,64.049057 69.222549,64.529007 68.922195,65.788475 
	C68.400940,69.571747 67.282639,73.385681 67.474983,77.132317 
	C67.970375,86.781853 69.045952,96.401604 69.878250,106.881226 
	C70.259712,109.494835 70.190865,112.278244 71.101219,114.692406 
	C74.877350,124.706245 78.949203,134.608566 82.866051,145.227112 
	C83.854362,147.856293 84.842667,150.485458 85.179138,152.946472 
	C79.780296,143.377731 74.381462,133.809006 68.852684,124.009979 
	C67.910667,124.413124 65.982918,125.238113 64.125870,125.371910 
	C65.145615,124.351669 66.190338,123.355019 67.180336,122.306686 
	C69.951675,119.372086 68.651306,112.979027 65.260040,110.377037 
	C65.732231,109.529518 66.675659,108.638420 66.601959,107.841385 
	C66.017921,101.525452 65.240311,95.227425 64.366859,87.560646 
	C58.097523,92.397522 52.539406,96.685684 46.413612,101.323784 
	C40.590874,108.883377 34.768135,116.442970 28.285528,124.204750 
	C20.005068,135.595703 17.963554,148.366531 19.935005,162.848969 
	C21.665276,178.129059 34.022675,191.244049 51.242470,195.937881 
	C69.152466,200.819855 85.774673,196.441925 102.579208,188.568100 
	C110.976974,182.981537 119.491783,177.559647 127.709030,171.719116 
	C130.584518,169.675293 132.727600,166.601013 135.789871,163.713776 
	C144.159668,155.634613 151.667511,146.922287 156.630783,135.573212 
	C157.044922,134.380753 157.459061,133.188309 158.452255,131.591553 
	C163.515869,122.925560 163.400055,122.218483 156.139511,117.471207 
	C149.429260,113.083748 146.758835,114.501656 145.378647,123.208786 
	C143.886795,125.774582 142.394958,128.340378 140.465256,130.604919 
	C139.998596,130.074631 139.531952,129.544327 138.861023,128.562866 
	C140.041580,126.351974 141.222153,124.141090 142.883026,121.540497 
	C144.184341,118.976028 145.485672,116.411552 146.806473,113.808678 
	C135.863678,109.200554 135.202240,109.497208 131.418152,120.347328 
	C125.974716,129.029404 121.165321,138.200119 114.939049,146.278870 
	C105.628052,158.360123 92.174561,164.814209 77.399521,170.107635 
	C74.799355,170.507690 72.211807,171.045090 69.596947,171.285248 
	C53.877743,172.729080 44.049961,167.196869 46.120789,150.998566 
	C46.851429,145.283386 48.193447,139.313126 53.917698,136.722275 
	C52.043282,140.955460 49.559776,145.031113 48.416164,149.453293 
	C45.699646,159.957672 49.251011,166.344650 58.641350,168.750931 
	C69.464958,171.524506 79.280754,167.814590 88.878899,163.458023 
	C89.692543,163.088715 89.772194,161.102295 90.858665,160.028137 
	C95.636864,161.143341 104.883011,155.030304 106.214348,149.610825 
	C106.491974,149.393036 106.769600,149.175247 107.580116,149.237305 
	C109.500786,147.905899 111.460289,146.626648 113.333374,145.231354 
	C116.427788,142.926300 116.247063,140.815598 113.599297,137.908844 
	C110.269890,134.253784 107.210266,130.216949 104.744675,125.935715 
	C96.263222,111.208588 92.046158,95.397995 93.900375,78.282578 
	C94.592003,71.898521 95.471962,65.534859 96.891319,58.912266 
	C100.180824,53.844776 103.249916,48.615887 106.813576,43.749149 
	C111.670494,37.116268 124.961945,37.128574 129.897858,43.476994 
	C133.512100,48.125542 136.687027,53.115669 140.121674,58.731136 
	C141.031845,63.379128 143.067734,68.155449 142.556366,72.641380 
	C141.967789,77.804359 143.414413,80.016655 148.715317,80.960381 
	C149.492737,80.646790 150.270157,80.333191 151.658249,80.012680 
	C152.065628,80.017021 152.472992,80.021370 153.065338,80.724266 
	C159.434891,83.820244 165.804428,86.916229 173.219208,90.520248 
	C172.478928,83.910324 171.867676,78.452568 171.255142,72.137054 
	C170.680862,69.103493 170.475800,65.937576 169.446716,63.067062 
	C167.859329,58.639149 165.707657,54.413525 164.285217,50.030144 
	C164.562683,49.914764 164.840134,49.799385 165.117599,49.684010 
	C164.661469,49.819088 164.205338,49.954166 163.302536,49.984272 
	C163.071899,49.765633 162.929230,49.499779 162.963730,48.434071 
	C162.980713,47.929863 162.997696,47.425659 163.685608,46.829784 
	C163.141556,45.539406 162.597519,44.249027 162.068359,43.024399 
M140.309235,72.016113 
	C140.067581,61.181320 136.148666,51.926788 128.125824,44.605595 
	C122.601555,39.564468 116.966553,39.301239 110.852097,43.034508 
	C102.764954,47.972221 94.872864,67.286766 96.612892,77.266846 
	C111.224518,77.266846 125.808189,77.266846 140.746887,77.266846 
	C140.693832,77.577133 140.912613,76.938194 140.886826,76.309288 
	C140.839462,75.154190 140.648041,74.005005 140.309235,72.016113 
M185.983459,143.763550 
	C181.527069,134.311783 174.222000,127.652260 166.364716,122.636826 
	C158.413101,135.940292 150.746841,148.766357 143.111191,161.541183 
	C151.646317,165.667786 165.216064,167.548431 174.530594,165.698486 
	C187.160080,163.190170 190.774780,156.675293 185.983459,143.763550 
M132.480301,110.548737 
	C122.584213,107.212059 112.804962,109.580078 103.047859,111.314339 
	C102.302826,111.446762 101.107536,113.511925 101.372627,114.188492 
	C105.080688,123.652145 110.355797,132.100418 118.025322,139.395920 
	C125.304390,130.825623 128.971542,121.056183 132.480301,110.548737 
z"/>
<path fill="#B9E6F7" opacity="1.000000" stroke="none" 
	d="
M240.704620,51.391548 
	C243.434891,49.991177 246.023773,48.982845 249.057312,47.801323 
	C252.020004,57.258434 254.634430,65.603828 257.607788,75.094963 
	C259.878387,67.912727 261.833130,61.786423 263.750977,55.648586 
	C266.082062,48.188217 266.068604,48.184010 274.437103,49.309689 
	C270.235962,62.136581 266.061066,74.883423 261.829559,87.802994 
	C259.148407,87.802994 256.527069,87.802994 253.489487,87.802994 
	C250.939941,79.743546 248.354065,71.569298 245.456833,62.410751 
	C242.634171,71.335228 240.101837,79.341782 237.464111,87.681595 
	C234.822968,87.681595 232.066223,87.681595 229.048569,87.681595 
	C224.905334,75.052094 220.718506,62.289726 216.517303,49.483536 
	C224.774277,47.872231 224.756897,47.877617 227.106750,55.460419 
	C229.012070,61.608643 230.965637,67.741905 233.295227,75.144768 
	C235.987366,66.491585 238.275299,59.137585 240.704620,51.391548 
z"/>
<path fill="#BAE7F8" opacity="1.000000" stroke="none" 
	d="
M458.049255,76.428955 
	C456.840515,76.368401 455.524353,76.285255 454.926544,75.587044 
	C451.584564,71.683823 448.416290,67.631889 444.421051,62.679199 
	C444.421051,71.671509 444.421051,79.606247 444.421051,87.768631 
	C441.272400,87.768631 438.713989,87.768631 435.975800,87.768631 
	C435.975800,74.800262 435.975800,62.060135 435.975800,49.346497 
	C441.051025,47.713589 444.504242,49.269798 447.351898,53.592175 
	C449.992371,57.600040 453.310181,61.161663 456.786652,65.488441 
	C459.996338,61.475281 463.304901,57.821602 466.043213,53.781410 
	C468.891602,49.578835 472.234131,47.463608 477.614258,49.377148 
	C477.614258,61.805931 477.614258,74.551842 477.614258,87.655777 
	C475.015686,87.655777 472.331818,87.655777 469.281677,87.655777 
	C469.281677,79.761017 469.281677,72.003784 469.281677,62.681564 
	C465.011169,67.895790 461.642334,72.009079 458.049255,76.428955 
z"/>
<path fill="#B9E6F7" opacity="1.000000" stroke="none" 
	d="
M382.899353,66.293861 
	C384.734650,56.132088 391.453857,49.403786 400.643066,48.125660 
	C409.907990,46.836998 418.806915,51.148083 422.984375,58.948898 
	C426.979156,66.408592 425.739410,75.881973 419.952301,82.118195 
	C414.008453,88.523369 404.475403,90.649742 396.099976,87.438507 
	C387.379761,84.095070 382.839996,76.994728 382.899353,66.293861 
M396.239563,58.622238 
	C391.338593,63.717312 390.238037,69.766800 393.285370,74.860222 
	C396.084076,79.538094 401.865845,81.965996 407.052765,80.528168 
	C411.945312,79.171928 415.162384,76.088989 416.173218,71.011955 
	C417.168732,66.012001 415.808228,61.675526 411.725769,58.587646 
	C406.974670,54.994041 401.906494,54.992638 396.239563,58.622238 
z"/>
<path fill="#BCE9FB" opacity="1.000000" stroke="none" 
	d="
M367.605530,83.686516 
	C359.033783,90.158600 349.507721,87.308189 340.205566,88.117477 
	C340.205566,74.853462 340.205566,62.120228 340.205566,49.113651 
	C346.393677,49.113651 352.572693,48.437931 358.536713,49.281731 
	C366.294464,50.379311 371.944550,55.010517 374.182709,62.839611 
	C376.509521,70.978653 374.315460,77.907097 367.605530,83.686516 
M348.476959,62.684486 
	C348.476959,68.408096 348.476959,74.131706 348.476959,79.850990 
	C355.300140,80.475342 361.329681,80.461021 364.789703,74.148300 
	C367.100677,69.931953 366.926880,65.465607 364.037994,61.486355 
	C360.147186,56.127129 354.560364,56.409355 348.477051,57.125374 
	C348.477051,58.801361 348.477051,60.267441 348.476959,62.684486 
z"/>
<path fill="#B8E4F5" opacity="1.000000" stroke="none" 
	d="
M319.211670,64.929489 
	C319.897858,65.125931 320.223969,65.201698 320.530853,65.325310 
	C328.579132,68.567444 331.659698,72.761421 330.410278,78.766304 
	C329.126678,84.935692 323.362976,88.977112 315.655609,88.900360 
	C309.988800,88.843941 304.917999,87.159233 300.603607,82.577400 
	C302.496460,80.754677 304.250214,79.065865 305.206848,78.144684 
	C309.511414,79.257721 313.025543,80.690178 316.599304,80.858803 
	C318.265503,80.937424 320.047211,78.567352 321.776581,77.307205 
	C320.592438,75.891159 319.672211,73.996475 318.165405,73.165535 
	C315.575836,71.737526 312.558685,71.111908 309.831604,69.900520 
	C304.456329,67.512825 301.756378,63.423119 302.223816,58.753864 
	C302.723267,53.764908 306.196533,49.879684 311.809265,48.551353 
	C318.345734,47.004410 324.286957,48.229740 329.497742,53.066612 
	C327.513519,54.793976 325.693268,56.378613 324.021667,57.833836 
	C321.515411,57.221954 318.560852,56.049568 315.575500,55.964886 
	C314.115234,55.923462 312.597595,57.905453 311.105927,58.971626 
	C312.141632,60.309860 312.970856,61.919418 314.271698,62.909210 
	C315.545380,63.878365 317.299469,64.216171 319.211670,64.929489 
z"/>
<path fill="#B4DFF0" opacity="1.000000" stroke="none" 
	d="
M282.981628,52.372635 
	C283.790863,50.880711 284.421753,49.251915 285.449799,48.942425 
	C287.113342,48.441628 289.037842,48.807648 291.206238,48.807648 
	C291.206238,61.900021 291.206238,74.749443 291.206238,87.814728 
	C288.542358,87.814728 285.970276,87.814728 282.981598,87.814728 
	C282.981598,76.033218 282.981598,64.430618 282.981628,52.372635 
z"/>
<path fill="#EFB5C8" opacity="1.000000" stroke="none" 
	d="
M194.285934,109.773865 
	C194.879120,109.890694 195.472290,110.007523 196.373260,110.171188 
	C196.681061,110.218033 196.714371,110.193657 196.770950,110.480545 
	C197.176941,110.918594 197.526367,111.069748 197.875778,111.220901 
	C197.875778,111.220901 197.890533,111.109810 197.859619,111.416595 
	C198.161346,111.901749 198.494003,112.080109 198.826645,112.258469 
	C198.826645,112.258469 198.843491,112.146057 198.852264,112.511436 
	C200.531723,114.628738 202.202423,116.380661 203.873123,118.132584 
	C203.873123,118.132576 203.938950,117.988441 203.925720,118.400620 
	C217.304886,137.525238 220.958557,157.051453 208.849487,177.894821 
	C208.849487,177.894821 208.941422,177.971588 208.599365,177.989594 
	C207.742172,178.707703 207.227051,179.407791 206.711914,180.107880 
	C205.681183,181.011887 204.650467,181.915924 203.068161,182.854095 
	C202.329391,182.881912 202.142227,182.875565 201.955673,182.511536 
	C202.950562,180.285339 203.773758,178.298599 204.969131,176.569077 
	C209.767227,169.627121 211.906433,161.584961 211.608139,153.566986 
	C211.101776,139.955917 206.469528,127.418381 198.042297,116.446869 
	C196.503128,114.443008 195.523727,112.009201 194.285934,109.773865 
z"/>
<path fill="#DD5379" opacity="1.000000" stroke="none" 
	d="
M415.985840,128.726273 
	C415.594727,130.114716 415.204132,131.062881 414.813507,132.011032 
	C413.994659,131.265823 413.175842,130.520599 412.266479,129.692993 
	C406.150208,133.395493 400.622437,132.908829 397.191895,128.116394 
	C393.635529,123.148285 394.481049,115.593552 399.018311,111.797112 
	C403.848114,107.755867 409.589691,108.728882 414.941528,114.495552 
	C414.778748,114.938644 414.615936,115.381744 414.453156,115.824837 
	C412.834961,115.067398 411.136414,114.443321 409.614532,113.526070 
	C405.899780,111.287109 401.522125,112.358376 399.327850,116.174416 
	C396.884796,120.423157 398.208374,126.408150 402.063110,128.542633 
	C405.726410,130.571106 409.896729,129.194565 411.998779,125.249565 
	C412.063232,125.128654 411.973541,124.925621 411.921661,124.446899 
	C410.189178,124.177757 408.365784,123.894493 406.542389,123.611229 
	C406.499237,123.052521 406.456116,122.493820 406.412964,121.935112 
	C409.421967,121.688026 412.431000,121.440933 415.986359,121.148979 
	C415.986359,124.041473 415.986359,126.163727 415.985840,128.726273 
z"/>
<path fill="#DF547A" opacity="1.000000" stroke="none" 
	d="
M438.531921,109.880890 
	C442.943054,109.879845 446.916412,109.879845 451.460327,109.879845 
	C451.460327,111.657349 451.735504,113.183678 451.330505,114.500847 
	C451.158508,115.060265 449.560760,115.181259 448.610962,115.501511 
	C447.747009,110.655106 444.130096,113.068214 441.126495,112.583786 
	C441.126495,114.706978 441.126495,116.606087 441.126495,118.706383 
	C443.110596,119.190544 445.218353,119.704887 447.326080,120.219223 
	C447.270172,120.705551 447.214233,121.191879 447.158325,121.678207 
	C445.176819,121.885963 443.195312,122.093719 440.977600,122.326248 
	C440.977600,124.549324 440.977600,126.627220 440.977600,129.179779 
	C443.837433,128.605255 447.455933,131.666534 448.560150,126.461517 
	C449.534393,126.730553 451.194489,126.793716 451.349091,127.308792 
	C451.748413,128.639114 451.482880,130.169022 451.482880,131.762329 
	C445.919983,131.762329 440.852844,131.762329 435.682678,131.762329 
	C438.193817,124.965118 439.152893,118.459480 436.016998,111.847649 
	C435.890442,111.580826 437.365387,110.554428 438.531921,109.880890 
z"/>
<path fill="#E7577E" opacity="1.000000" stroke="none" 
	d="
M265.301331,132.031830 
	C264.192932,131.978500 263.524475,131.973022 262.878540,131.849716 
	C262.619934,131.800354 262.410797,131.491623 262.180908,131.302414 
	C265.009766,127.012352 264.940491,114.010788 261.586700,110.219421 
	C266.129333,110.219421 270.277802,109.579559 274.048920,110.494743 
	C275.879791,110.939064 278.605469,115.640778 278.199829,116.123276 
	C274.278870,120.787354 283.028900,128.781555 274.173096,131.589310 
	C271.579376,132.411636 268.569458,131.921158 265.301331,132.031830 
M274.190277,118.633057 
	C276.061401,113.212585 274.289948,111.712509 267.385742,112.927887 
	C267.385742,115.106667 267.385742,117.289154 267.385742,119.955925 
	C269.718414,119.632767 271.622101,119.369041 274.190277,118.633057 
M267.765259,122.306870 
	C267.473236,124.478523 267.181213,126.650185 266.851715,129.100433 
	C268.749603,129.222580 270.250763,129.769043 271.234924,129.278442 
	C272.758911,128.518753 273.929993,127.051224 275.250732,125.883835 
	C274.026489,124.641479 272.928558,123.218269 271.522491,122.236206 
	C270.860901,121.774132 269.606964,122.160187 267.765259,122.306870 
z"/>
<path fill="#E6567D" opacity="1.000000" stroke="none" 
	d="
M309.941711,121.121025 
	C311.323395,124.673035 312.816925,127.850922 314.439667,131.303802 
	C310.905670,133.388245 309.727142,131.302460 309.129578,128.161575 
	C308.443237,124.554214 307.734985,120.991005 301.667236,122.312508 
	C302.229156,125.354370 302.804993,128.471375 303.408264,131.736847 
	C301.633453,131.736847 299.402435,131.736847 297.117767,131.736847 
	C299.797119,124.644821 300.020020,117.700737 296.908600,110.077095 
	C300.715485,110.077095 304.479187,109.620308 308.082581,110.185448 
	C313.329895,111.008423 314.133392,115.978401 309.941711,121.121025 
M302.120697,113.160324 
	C302.120697,115.073128 302.120697,116.985939 302.120697,119.070107 
	C303.400543,119.143044 304.573730,119.574234 305.281006,119.176613 
	C306.902344,118.265114 308.296356,116.949188 309.782654,115.797462 
	C308.408386,114.673088 307.136597,113.368515 305.614990,112.503296 
	C304.895508,112.094185 303.697693,112.526299 302.120697,113.160324 
z"/>
<path fill="#E5567D" opacity="1.000000" stroke="none" 
	d="
M377.754822,123.385391 
	C374.473206,131.496536 370.581940,133.156937 359.290619,131.610535 
	C361.971954,124.675407 362.037872,117.757645 359.420380,110.768059 
	C370.233643,106.986221 378.173370,112.141472 377.754822,123.385391 
M373.040100,115.451363 
	C370.693909,112.492165 367.704285,112.106041 364.311432,112.850891 
	C364.311432,118.532768 364.311432,123.790436 364.311432,129.017776 
	C373.185852,129.788101 376.721130,124.668785 373.040100,115.451363 
z"/>
<path fill="#040F62" opacity="1.000000" stroke="none" 
	d="
M209.203766,177.923798 
	C220.958557,157.051453 217.304886,137.525238 203.880585,118.466003 
	C205.708725,119.786720 208.116470,121.126419 209.341934,123.173790 
	C218.841110,139.043900 222.033936,155.571518 213.469543,172.953644 
	C212.554199,174.811432 210.880127,176.295395 209.203766,177.923798 
z"/>
<path fill="#E9577F" opacity="1.000000" stroke="none" 
	d="
M338.697388,109.948509 
	C338.772400,114.062737 338.160065,118.141014 338.140900,122.222084 
	C338.126526,125.297035 338.872101,128.375565 339.314178,131.715347 
	C337.713409,131.715347 335.495819,131.715347 333.209045,131.715347 
	C335.977020,124.609146 336.141449,117.668724 333.010712,109.913765 
	C334.850739,109.913765 336.557861,109.913765 338.697388,109.948509 
z"/>
<path fill="#BD8AAD" opacity="1.000000" stroke="none" 
	d="
M201.955063,182.869232 
	C202.142227,182.875565 202.329391,182.881912 202.789001,182.957260 
	C202.844299,183.392014 202.627182,183.757767 202.282196,184.287613 
	C192.056580,191.558304 180.755875,195.434525 168.564560,196.824829 
	C166.812103,197.024689 164.999054,196.693527 163.214050,196.608124 
	C163.375961,195.976318 163.537872,195.344498 164.253204,194.363678 
	C166.192230,193.973312 167.577881,193.931976 169.214615,194.162598 
	C177.594528,194.437027 185.027893,192.015945 191.999756,187.985443 
	C192.004669,188.001266 191.973602,187.989853 192.182220,187.879654 
	C192.655273,187.584122 192.850830,187.342957 193.276260,186.901245 
	C195.327866,185.852570 197.080765,184.948639 199.095825,183.949051 
	C199.581070,183.569183 199.804153,183.284973 200.009125,182.998947 
	C199.990997,182.997131 200.000717,183.032242 200.308868,183.047699 
	C200.822235,183.048843 201.027435,183.034531 201.415878,182.995087 
	C201.599121,182.969955 201.955063,182.869232 201.955063,182.869232 
z"/>
<path fill="#040F62" opacity="1.000000" stroke="none" 
	d="
M203.971298,117.766663 
	C202.202423,116.380661 200.531723,114.628738 198.807144,112.545990 
	C200.525314,113.943695 202.297394,115.672218 203.971298,117.766663 
z"/>
<path fill="#040F62" opacity="1.000000" stroke="none" 
	d="
M207.094238,180.114014 
	C207.227051,179.407791 207.742172,178.707703 208.575165,177.934830 
	C208.420883,178.614731 207.948700,179.367432 207.094238,180.114014 
z"/>
<path fill="#040F62" opacity="1.000000" stroke="none" 
	d="
M198.812119,111.953964 
	C198.494003,112.080109 198.161346,111.901749 197.804031,111.423683 
	C198.118774,111.299141 198.458191,111.474297 198.812119,111.953964 
z"/>
<path fill="#040F62" opacity="1.000000" stroke="none" 
	d="
M197.837646,110.918335 
	C197.526367,111.069748 197.176941,110.918594 196.786926,110.467438 
	C197.097382,110.316879 197.448441,110.466324 197.837646,110.918335 
z"/>
<path fill="#0060B0" opacity="1.000000" stroke="none" 
	d="
M96.266052,59.161896 
	C95.471962,65.534859 94.592003,71.898521 93.900375,78.282578 
	C92.046158,95.397995 96.263222,111.208588 104.744675,125.935715 
	C107.210266,130.216949 110.269890,134.253784 113.599297,137.908844 
	C116.247063,140.815598 116.427788,142.926300 113.333374,145.231354 
	C111.460289,146.626648 109.500786,147.905899 107.178207,148.784973 
	C106.158241,147.357239 105.602051,146.335602 104.912766,145.413467 
	C96.130402,133.664078 88.479965,121.368057 85.780693,106.608078 
	C85.668907,105.996841 84.705170,105.541412 83.882294,104.802673 
	C83.263695,100.235954 82.901154,95.879944 82.588791,91.377182 
	C82.276825,90.863808 81.914688,90.497192 81.408852,89.751099 
	C81.224640,88.565758 81.184135,87.759895 81.519836,86.846748 
	C81.941338,80.833908 81.986641,74.928345 82.024689,68.623611 
	C84.673523,60.742867 86.735397,52.976315 90.149239,45.858166 
	C93.715996,38.421162 99.308266,32.224201 107.271866,29.074163 
	C122.649445,22.991491 140.594772,29.763884 148.229630,44.462444 
	C151.051376,49.894848 153.416138,55.564625 155.986725,61.477959 
	C156.028473,62.530716 156.072815,63.231651 155.848511,64.166504 
	C154.379990,66.936050 153.180130,69.471664 151.817200,71.649796 
	C149.445496,64.782547 147.236847,58.272785 145.017242,51.410255 
	C143.645248,48.635475 142.470932,46.083515 140.891174,43.813747 
	C133.707718,33.492619 123.111923,30.140980 113.459274,34.748657 
	C103.097961,39.694611 97.960800,48.182240 96.266052,59.161896 
z"/>
<path fill="#007186" opacity="1.000000" stroke="none" 
	d="
M78.263802,170.233902 
	C92.174561,164.814209 105.628052,158.360123 114.939049,146.278870 
	C121.165321,138.200119 125.974716,129.029404 132.094513,120.150558 
	C135.981491,120.612587 139.192108,121.271393 142.402710,121.930199 
	C141.222153,124.141090 140.041580,126.351974 138.905518,129.145325 
	C135.587906,135.445679 132.225800,141.163574 128.632172,147.093536 
	C128.306595,147.903976 128.212570,148.502365 127.794861,149.046661 
	C126.692299,150.054565 125.913429,151.116577 124.953209,152.454651 
	C120.312050,156.874512 115.969261,161.153488 111.369331,165.135406 
	C100.001091,174.976318 87.068512,181.807388 72.025620,183.719269 
	C46.363941,186.980743 28.746544,168.439651 34.030674,144.970657 
	C35.759418,137.292618 40.626381,130.321152 44.034195,123.010132 
	C44.010235,122.993713 43.999435,123.050797 44.246269,122.945221 
	C44.707619,122.557022 44.922138,122.274406 45.367218,121.890778 
	C46.018642,121.522087 46.439503,121.254417 47.309822,120.989716 
	C49.863533,120.998528 51.967777,121.004372 54.024178,121.360184 
	C49.579491,128.652802 44.417908,135.238556 40.970928,142.624512 
	C36.191757,152.864990 37.996700,163.508240 45.878536,168.859680 
	C50.774082,172.183578 57.468071,173.873215 63.475956,174.224350 
	C68.310974,174.506973 73.327698,171.680740 78.263802,170.233902 
z"/>
<path fill="#71155C" opacity="1.000000" stroke="none" 
	d="
M103.881622,98.848404 
	C105.993408,98.232834 108.105194,97.617264 111.061501,96.983917 
	C125.017410,96.258255 137.994370,97.212402 151.085175,100.350571 
	C156.341034,102.752121 161.307404,104.959679 166.317902,107.061989 
	C168.853958,108.126060 171.469788,108.999977 174.021698,109.974625 
	C173.993820,109.989403 174.031296,109.938393 174.045990,110.293167 
	C175.062607,111.088943 176.064514,111.529953 177.037506,111.984909 
	C177.008606,111.998863 177.000824,111.935143 177.109680,112.238251 
	C177.519440,112.850723 177.820328,113.160072 178.421722,113.553604 
	C188.305145,121.985680 196.943741,130.893585 200.418823,143.769775 
	C205.607498,162.995300 190.857040,183.008606 170.898514,183.095276 
	C164.285568,183.123993 157.669434,182.421616 150.700836,182.020325 
	C149.874039,181.955505 149.401169,181.923889 148.781738,181.610016 
	C146.421051,178.868073 144.206894,176.408371 142.394562,173.961609 
	C152.629898,176.996597 162.698181,177.621704 173.284988,176.907013 
	C190.614746,172.295380 195.011002,166.722641 194.012421,151.109985 
	C193.476273,142.727417 185.931290,131.925415 179.158249,129.843567 
	C167.311157,119.180061 153.877426,111.106293 138.041916,108.770760 
	C128.167099,107.314362 117.947258,108.197311 107.296844,107.724335 
	C105.768158,104.561630 104.824890,101.705017 103.881622,98.848404 
z"/>
<path fill="#000001" opacity="1.000000" stroke="none" 
	d="
M140.412949,72.434738 
	C140.648041,74.005005 140.839462,75.154190 140.886826,76.309288 
	C140.912613,76.938194 140.693832,77.577133 140.746887,77.266846 
	C125.808189,77.266846 111.224518,77.266846 96.612892,77.266846 
	C94.872864,67.286766 102.764954,47.972221 110.852097,43.034508 
	C116.966553,39.301239 122.601555,39.564468 128.125824,44.605595 
	C136.148666,51.926788 140.067581,61.181320 140.412949,72.434738 
z"/>
<path fill="#000001" opacity="1.000000" stroke="none" 
	d="
M90.192841,159.867142 
	C89.772194,161.102295 89.692543,163.088715 88.878899,163.458023 
	C79.280754,167.814590 69.464958,171.524506 58.641350,168.750931 
	C49.251011,166.344650 45.699646,159.957672 48.416164,149.453293 
	C49.559776,145.031113 52.043282,140.955460 53.961899,136.366302 
	C54.006096,136.010330 54.021099,136.024948 54.319698,135.883743 
	C55.796715,134.176025 56.975128,132.609512 58.345253,130.942825 
	C58.776035,130.664551 58.944775,130.434799 59.365028,130.065628 
	C61.138569,128.665909 62.590260,127.353943 64.038605,126.037773 
	C64.035263,126.033562 64.055176,126.063103 64.055176,126.063103 
	C65.982918,125.238113 67.910667,124.413124 68.852684,124.009979 
	C74.381462,133.809006 79.780296,143.377731 85.519028,153.017395 
	C85.858925,153.088333 85.887726,153.096497 85.884529,153.427094 
	C86.514526,154.553238 87.147720,155.348755 87.856026,156.357544 
	C87.931137,156.570816 88.025536,157.013046 88.032845,157.332977 
	C88.736107,158.395096 89.432060,159.137268 90.144470,159.883331 
	C90.160919,159.887207 90.192841,159.867142 90.192841,159.867142 
z"/>
<path fill="#000001" opacity="1.000000" stroke="none" 
	d="
M186.144699,144.119537 
	C190.774780,156.675293 187.160080,163.190170 174.530594,165.698486 
	C165.216064,167.548431 151.646317,165.667786 143.111191,161.541183 
	C150.746841,148.766357 158.413101,135.940292 166.364716,122.636826 
	C174.222000,127.652260 181.527069,134.311783 186.144699,144.119537 
z"/>
<path fill="#79D3F8" opacity="1.000000" stroke="none" 
	d="
M70.194321,59.998127 
	C74.656845,40.221706 84.095406,24.177584 103.464851,15.551892 
	C115.991135,9.973627 128.049561,10.996974 139.652161,18.111570 
	C149.374268,24.073080 156.936249,32.078724 161.878708,42.924137 
	C160.761459,43.044300 159.914673,42.497585 159.034561,41.970963 
	C159.001251,41.991047 159.060089,41.938702 159.080414,41.571419 
	C158.081100,40.437977 157.061447,39.671818 156.033951,38.941338 
	C156.026093,38.977020 156.098083,38.964500 156.370789,38.684429 
	C155.776794,37.588356 154.910095,36.772350 154.021881,35.977371 
	C154.000366,35.998394 154.056534,35.976910 154.059662,35.671688 
	C153.715225,35.224903 153.367691,35.083344 153.010925,34.970013 
	C153.001724,34.998245 153.058243,34.979946 153.061020,34.674267 
	C152.715897,34.226303 152.367981,34.084015 152.010895,33.970001 
	C152.001709,33.998272 152.058533,33.980751 152.060928,33.674965 
	C151.715286,33.226601 151.367264,33.084015 151.010406,32.969788 
	C151.001572,32.998142 151.051941,32.966625 151.013763,32.629944 
	C150.348312,32.138020 149.721054,31.982779 148.925171,31.536148 
	C141.027969,24.347395 131.925797,20.131287 121.661201,19.953861 
	C107.430222,19.707878 96.891624,27.566872 88.162407,37.894787 
	C77.688889,50.286469 74.167740,65.498642 71.331268,80.880890 
	C70.638588,78.874405 70.186256,77.029945 69.993713,75.158768 
	C69.646431,71.783936 69.454575,68.393105 69.197800,65.008957 
	C69.222549,64.529007 69.247299,64.049057 69.552948,63.086006 
	C69.960388,62.350063 69.986366,62.087254 69.911774,61.814480 
	C69.911774,61.814480 69.883240,61.386269 70.116783,61.106644 
	C70.554489,60.511711 70.502487,60.235413 70.194321,59.998127 
z"/>
<path fill="#002C6F" opacity="1.000000" stroke="none" 
	d="
M59.043175,130.153381 
	C58.944775,130.434799 58.776035,130.664551 57.975189,130.961609 
	C56.282650,132.728714 55.151875,134.376831 54.021099,136.024948 
	C54.021099,136.024948 54.006096,136.010330 54.018913,136.017365 
	C48.193447,139.313126 46.851429,145.283386 46.120789,150.998566 
	C44.049961,167.196869 53.877743,172.729080 69.596947,171.285248 
	C72.211807,171.045090 74.799355,170.507690 77.831665,170.170776 
	C73.327698,171.680740 68.310974,174.506973 63.475956,174.224350 
	C57.468071,173.873215 50.774082,172.183578 45.878536,168.859680 
	C37.996700,163.508240 36.191757,152.864990 40.970928,142.624512 
	C44.417908,135.238556 49.579491,128.652802 54.350800,121.288849 
	C58.115276,117.575287 61.505280,114.283028 64.895279,110.990768 
	C68.651306,112.979027 69.951675,119.372086 67.180336,122.306686 
	C66.190338,123.355019 65.145615,124.351669 64.090523,125.717506 
	C64.055176,126.063103 64.035263,126.033562 63.668343,126.023575 
	C61.882008,127.393517 60.462593,128.773453 59.043175,130.153381 
z"/>
<path fill="#000002" opacity="1.000000" stroke="none" 
	d="
M132.560944,110.918495 
	C128.971542,121.056183 125.304390,130.825623 118.025322,139.395920 
	C110.355797,132.100418 105.080688,123.652145 101.372627,114.188492 
	C101.107536,113.511925 102.302826,111.446762 103.047859,111.314339 
	C112.804962,109.580078 122.584213,107.212059 132.560944,110.918495 
z"/>
<path fill="#B61D58" opacity="1.000000" stroke="none" 
	d="
M111.129066,78.144829 
	C122.494141,77.168434 133.437637,79.127876 144.732285,83.266174 
	C151.922012,87.080307 158.502792,90.510986 164.638306,93.966858 
	C155.098862,93.672226 146.004684,93.352402 136.524811,93.072479 
	C131.097870,96.759331 126.003944,94.535133 120.777534,92.940086 
	C115.788765,88.904167 112.130760,84.396179 111.129066,78.144829 
z"/>
<path fill="#0294DE" opacity="1.000000" stroke="none" 
	d="
M82.912491,144.551834 
	C78.949203,134.608566 74.877350,124.706245 71.101219,114.692406 
	C70.190865,112.278244 70.259712,109.494835 69.936081,106.005341 
	C70.388405,99.123390 70.782906,93.117317 71.402702,87.376282 
	C75.532333,96.732742 79.436661,105.824173 83.612915,115.139725 
	C88.673576,118.576431 89.587784,123.691559 90.346100,129.200928 
	C87.773041,134.576447 85.342766,139.564133 82.912491,144.551834 
z"/>
<path fill="#02B19D" opacity="1.000000" stroke="none" 
	d="
M156.154312,135.990799 
	C151.667511,146.922287 144.159668,155.634613 135.133301,163.849091 
	C128.670837,167.692612 122.864944,171.400818 117.075356,174.750519 
	C117.709915,173.429596 118.362938,172.487564 118.940704,171.501434 
	C122.346542,165.688416 125.734879,159.865143 129.510284,154.025818 
	C134.878036,152.754715 135.381104,150.787720 131.952789,146.525574 
	C134.422470,143.133499 136.674515,140.013275 139.320038,136.885864 
	C145.105057,134.939468 150.543427,133.867813 156.154312,135.990799 
z"/>
<path fill="#003488" opacity="1.000000" stroke="none" 
	d="
M96.578690,59.037079 
	C97.960800,48.182240 103.097961,39.694611 113.459274,34.748657 
	C123.111923,30.140980 133.707718,33.492619 140.891174,43.813747 
	C142.470932,46.083515 143.645248,48.635475 145.002228,51.837593 
	C147.014664,61.751663 149.031128,70.885635 151.047577,80.019592 
	C150.270157,80.333191 149.492737,80.646790 148.369873,80.530746 
	C146.719009,74.484993 145.641769,68.800385 143.987335,63.289040 
	C143.389313,61.296860 141.407898,59.719955 140.057755,57.953552 
	C136.687027,53.115669 133.512100,48.125542 129.897858,43.476994 
	C124.961945,37.128574 111.670494,37.116268 106.813576,43.749149 
	C103.249916,48.615887 100.180824,53.844776 96.578690,59.037079 
z"/>
<path fill="#F08DA8" opacity="1.000000" stroke="none" 
	d="
M198.833664,184.044708 
	C197.080765,184.948639 195.327866,185.852570 193.063263,187.004166 
	C192.278717,187.435028 192.086075,187.681030 191.973602,187.989853 
	C191.973602,187.989853 192.004669,188.001266 191.625671,187.985168 
	C190.169067,187.577408 189.091461,187.185715 188.223709,186.545441 
	C201.735992,179.697723 207.682922,168.285248 207.687454,154.130508 
	C207.692429,138.587341 201.816803,124.951302 190.600983,113.984085 
	C184.931198,108.440010 178.833023,103.334045 173.310654,98.010971 
	C175.369400,98.598114 177.032425,99.245796 178.725891,99.800659 
	C181.258636,100.630539 183.812775,101.395134 186.357819,102.187492 
	C186.357819,102.187492 186.649384,102.265411 186.660110,102.679016 
	C187.181152,103.360283 187.691467,103.627930 188.201782,103.895569 
	C189.421127,105.317619 190.640457,106.739662 192.138260,108.754211 
	C193.031815,109.501945 193.646927,109.657188 194.262024,109.812439 
	C194.262024,109.812439 194.279068,109.799950 194.282501,109.786911 
	C195.523727,112.009201 196.503128,114.443008 198.042297,116.446869 
	C206.469528,127.418381 211.101776,139.955917 211.608139,153.566986 
	C211.906433,161.584961 209.767227,169.627121 204.969131,176.569077 
	C203.773758,178.298599 202.950562,180.285339 201.955673,182.511536 
	C201.955063,182.869232 201.599121,182.969955 201.274399,182.838165 
	C200.633347,182.815002 200.317032,182.923615 200.000717,183.032227 
	C200.000717,183.032242 199.990997,182.997131 199.768021,183.117798 
	C199.307922,183.507217 199.070801,183.775970 198.833664,184.044708 
z"/>
<path fill="#005E80" opacity="1.000000" stroke="none" 
	d="
M65.077660,110.683899 
	C61.505280,114.283028 58.115276,117.575287 54.398651,120.938881 
	C51.967777,121.004372 49.863533,120.998528 47.397522,120.623703 
	C50.549656,113.817787 50.806240,107.390053 46.981289,100.973846 
	C52.539406,96.685684 58.097523,92.397522 64.366859,87.560646 
	C65.240311,95.227425 66.017921,101.525452 66.601959,107.841385 
	C66.675659,108.638420 65.732231,109.529518 65.077660,110.683899 
z"/>
<path fill="#371060" opacity="1.000000" stroke="none" 
	d="
M179.255020,130.169174 
	C185.931290,131.925415 193.476273,142.727417 194.012421,151.109985 
	C195.011002,166.722641 190.614746,172.295380 172.983490,176.645020 
	C163.760437,175.270096 155.218536,174.203674 146.704590,172.947815 
	C145.379135,172.752289 144.181198,171.692215 143.216736,170.768753 
	C145.118088,170.539261 146.728867,170.639160 148.335602,170.594528 
	C153.892426,170.440170 159.447845,170.235458 165.003799,170.049911 
	C170.735611,168.664902 176.896164,168.178513 182.103485,165.694153 
	C190.954407,161.471451 193.264053,152.593918 188.448761,144.014816 
	C185.798767,139.293533 182.408371,134.987839 179.255020,130.169174 
z"/>
<path fill="#004FA0" opacity="1.000000" stroke="none" 
	d="
M82.889267,144.889465 
	C85.342766,139.564133 87.773041,134.576447 90.631424,129.327957 
	C96.016815,136.065750 100.974106,143.064316 105.931396,150.062897 
	C104.883011,155.030304 95.636864,161.143341 90.525757,159.947632 
	C90.192841,159.867142 90.160919,159.887207 90.141518,159.549469 
	C89.423256,158.478821 88.724396,157.745941 88.025536,157.013046 
	C88.025536,157.013046 87.931137,156.570816 87.853378,156.028809 
	C87.146324,154.690048 86.517029,153.893265 85.887726,153.096497 
	C85.887726,153.096497 85.858925,153.088333 85.844948,153.101486 
	C84.842667,150.485458 83.854362,147.856293 82.889267,144.889465 
z"/>
<path fill="#AAECE1" opacity="1.000000" stroke="none" 
	d="
M101.902931,188.712173 
	C85.774673,196.441925 69.152466,200.819855 51.242470,195.937881 
	C34.022675,191.244049 21.665276,178.129059 20.193251,162.223389 
	C20.637793,160.719879 20.824087,159.841934 21.264757,159.233749 
	C22.507256,162.646820 23.171471,165.938919 24.535824,168.909439 
	C33.709682,188.883209 58.683044,196.134766 78.767967,193.423325 
	C86.553307,192.372330 94.146049,189.894592 101.827545,188.230286 
	C101.828560,188.393784 101.902931,188.712173 101.902931,188.712173 
z"/>
<path fill="#0050A1" opacity="1.000000" stroke="none" 
	d="
M151.980286,72.007278 
	C153.180130,69.471664 154.379990,66.936050 156.129639,64.346336 
	C160.078735,69.638138 165.444458,71.690208 171.256439,72.994804 
	C171.867676,78.452568 172.478928,83.910324 173.219208,90.520248 
	C165.804428,86.916229 159.434891,83.820244 152.990662,79.972366 
	C152.604095,76.816078 152.292191,74.411682 151.980286,72.007278 
z"/>
<path fill="#01AC9B" opacity="1.000000" stroke="none" 
	d="
M46.697449,101.148819 
	C50.806240,107.390053 50.549656,113.817787 46.948059,120.620728 
	C46.439503,121.254417 46.018642,121.522087 45.125214,122.007767 
	C44.434910,122.500786 44.217171,122.775787 43.999435,123.050797 
	C43.999435,123.050797 44.010235,122.993713 43.654228,122.996948 
	C40.167427,124.849167 36.847023,126.446823 33.962826,128.622696 
	C31.428078,130.534927 29.381809,133.094635 26.901386,135.120880 
	C27.074110,133.233353 27.465250,131.593307 27.930824,129.577576 
	C28.318638,127.468781 28.632019,125.735672 28.945396,124.002563 
	C34.768135,116.442970 40.590874,108.883377 46.697449,101.148819 
z"/>
<path fill="#0194DE" opacity="1.000000" stroke="none" 
	d="
M171.255798,72.565933 
	C165.444458,71.690208 160.078735,69.638138 156.398300,64.112411 
	C156.072815,63.231651 156.028473,62.530716 155.988068,61.002968 
	C155.337906,54.312222 154.658829,48.450893 154.046814,42.582573 
	C153.888901,41.068447 153.941742,39.532349 154.191544,38.101940 
	C155.022903,38.453194 155.560501,38.708847 156.098083,38.964500 
	C156.098083,38.964500 156.026093,38.977020 156.037582,39.297943 
	C157.052750,40.392143 158.056412,41.165424 159.060089,41.938705 
	C159.060089,41.938702 159.001251,41.991047 158.858902,42.304798 
	C160.102539,44.807938 161.488525,46.997330 162.874527,49.186722 
	C162.929230,49.499779 163.071899,49.765633 163.562439,50.006500 
	C163.822357,50.028732 163.795334,50.102097 163.795334,50.102097 
	C165.707657,54.413525 167.859329,58.639149 169.446716,63.067062 
	C170.475800,65.937576 170.680862,69.103493 171.255798,72.565933 
z"/>
<path fill="#40105F" opacity="1.000000" stroke="none" 
	d="
M133.973785,191.017334 
	C128.461197,189.110016 122.948601,187.202698 116.438026,184.950073 
	C123.335449,179.883408 129.295349,175.505402 135.840652,171.378113 
	C137.645035,172.144867 138.864029,172.660904 140.049133,173.536499 
	C138.005249,179.255997 135.995270,184.615952 133.961700,190.236023 
	C133.950027,190.669876 133.961914,190.843613 133.973785,191.017334 
z"/>
<path fill="#B31C57" opacity="1.000000" stroke="none" 
	d="
M134.318253,191.174866 
	C133.961914,190.843613 133.950027,190.669876 134.256866,190.082108 
	C138.686050,185.832443 142.496506,181.443100 148.928299,181.892258 
	C149.401169,181.923889 149.874039,181.955505 150.853104,182.319611 
	C154.574661,184.425003 157.790039,186.197922 160.670502,188.051819 
	C160.222061,189.965103 160.108536,191.797379 159.994995,193.629669 
	C151.417084,194.339523 142.891525,194.472244 134.318253,191.174866 
z"/>
<path fill="#5B135D" opacity="1.000000" stroke="none" 
	d="
M110.720093,78.102463 
	C112.130760,84.396179 115.788765,88.904167 120.492096,93.174866 
	C117.216026,94.192635 114.084496,94.666771 110.952965,95.140907 
	C108.574638,95.460289 106.196312,95.779671 103.407951,95.636780 
	C103.660698,89.775909 104.323479,84.377319 104.986252,78.978722 
	C106.761208,78.672508 108.536171,78.366302 110.720093,78.102463 
z"/>
<path fill="#002C6F" opacity="1.000000" stroke="none" 
	d="
M145.983032,122.863937 
	C146.758835,114.501656 149.429260,113.083748 156.139511,117.471207 
	C163.400055,122.218483 163.515869,122.925560 157.880219,131.637421 
	C153.533142,128.743515 149.758087,125.803726 145.983032,122.863937 
z"/>
<path fill="#3F105F" opacity="1.000000" stroke="none" 
	d="
M104.561333,78.983673 
	C104.323479,84.377319 103.660698,89.775909 102.994965,95.640533 
	C96.647606,99.052582 95.716591,98.538544 95.056282,91.661270 
	C94.961563,90.674767 95.012436,89.673714 95.006630,88.679329 
	C94.953751,79.620125 94.954445,79.620117 104.561333,78.983673 
z"/>
<path fill="#005E80" opacity="1.000000" stroke="none" 
	d="
M145.680847,123.036362 
	C149.758087,125.803726 153.533142,128.743515 157.590698,131.839569 
	C157.459061,133.188309 157.044922,134.380753 156.392548,135.782013 
	C150.543427,133.867813 145.105057,134.939468 139.321411,136.533783 
	C139.587204,134.427979 140.245148,132.667068 140.903107,130.906174 
	C142.394958,128.340378 143.886795,125.774582 145.680847,123.036362 
z"/>
<path fill="#BA7099" opacity="1.000000" stroke="none" 
	d="
M186.194275,101.927185 
	C183.812775,101.395134 181.258636,100.630539 178.725891,99.800659 
	C177.032425,99.245796 175.369400,98.598114 173.335892,97.996368 
	C172.979034,98.000793 173.002228,98.054100 172.841248,97.799789 
	C172.118713,97.353447 171.557159,97.161407 170.693939,96.865631 
	C169.264923,96.164284 168.137543,95.566689 166.831543,94.735008 
	C166.105118,94.311951 165.557327,94.122978 165.025223,93.959641 
	C165.040894,93.985275 165.083557,93.941658 165.083557,93.941658 
	C158.502792,90.510986 151.922012,87.080307 145.097488,83.387878 
	C146.641891,83.302162 148.517899,83.188660 150.204254,83.700287 
	C163.166916,87.633072 175.133087,93.595230 186.194275,101.927185 
z"/>
<path fill="#75CFC8" opacity="1.000000" stroke="none" 
	d="
M102.241074,188.640137 
	C101.902931,188.712173 101.828560,188.393784 101.935677,187.889099 
	C104.381363,184.924011 106.719933,182.463593 109.311882,179.803314 
	C111.389053,178.506042 113.212837,177.408600 115.330132,176.208740 
	C116.104309,175.748917 116.584976,175.391541 117.043808,175.050751 
	C117.021973,175.067322 117.059052,175.109024 117.059052,175.109024 
	C122.864944,171.400818 128.670837,167.692612 134.840942,163.990860 
	C132.727600,166.601013 130.584518,169.675293 127.709030,171.719116 
	C119.491783,177.559647 110.976974,182.981537 102.241074,188.640137 
z"/>
<path fill="#1A0D62" opacity="1.000000" stroke="none" 
	d="
M164.718048,169.774475 
	C159.447845,170.235458 153.892426,170.440170 148.335602,170.594528 
	C146.728867,170.639160 145.118088,170.539261 142.819702,170.763000 
	C140.082870,170.685654 138.035492,170.350891 135.988129,170.016129 
	C136.122498,165.405701 139.650482,162.879333 143.854462,164.070511 
	C150.678574,166.004120 157.569565,167.701782 164.718048,169.774475 
z"/>
<path fill="#003271" opacity="1.000000" stroke="none" 
	d="
M142.642868,121.735352 
	C139.192108,121.271393 135.981491,120.612587 132.352127,119.912109 
	C135.202240,109.497208 135.863678,109.200554 146.806473,113.808678 
	C145.485672,116.411552 144.184341,118.976028 142.642868,121.735352 
z"/>
<path fill="#6FBCE6" opacity="1.000000" stroke="none" 
	d="
M71.177406,87.111252 
	C70.782906,93.117317 70.388405,99.123390 69.941811,105.581360 
	C69.045952,96.401604 67.970375,86.781853 67.474983,77.132317 
	C67.282639,73.385681 68.400940,69.571747 69.059998,65.398712 
	C69.454575,68.393105 69.646431,71.783936 69.993713,75.158768 
	C70.186256,77.029945 70.638588,78.874405 71.357506,81.255875 
	C71.553261,83.557655 71.365334,85.334450 71.177406,87.111252 
z"/>
<path fill="#051E74" opacity="1.000000" stroke="none" 
	d="
M106.072876,149.836853 
	C100.974106,143.064316 96.016815,136.065750 90.774208,128.940140 
	C89.587784,123.691559 88.673576,118.576431 83.725067,114.809784 
	C83.756310,111.174950 83.947327,108.094170 84.138344,105.013397 
	C84.705170,105.541412 85.668907,105.996841 85.780693,106.608078 
	C88.479965,121.368057 96.130402,133.664078 104.912766,145.413467 
	C105.602051,146.335602 106.158241,147.357239 106.911758,148.645050 
	C106.769600,149.175247 106.491974,149.393036 106.072876,149.836853 
z"/>
<path fill="#1A1265" opacity="1.000000" stroke="none" 
	d="
M110.965355,95.431946 
	C114.084496,94.666771 117.216026,94.192635 120.632996,93.483719 
	C126.003944,94.535133 131.097870,96.759331 136.575745,93.454803 
	C138.296097,94.585213 139.489563,95.640930 140.880814,96.110130 
	C144.781311,97.425568 148.763443,98.498970 152.239380,99.782906 
	C151.448227,99.969673 151.131058,100.041374 150.813904,100.113075 
	C137.994370,97.212402 125.017410,96.258255 111.435211,96.927681 
	C110.968864,96.500481 110.973305,96.111732 110.965355,95.431946 
z"/>
<path fill="#001F76" opacity="1.000000" stroke="none" 
	d="
M140.089722,58.342346 
	C141.407898,59.719955 143.389313,61.296860 143.987335,63.289040 
	C145.641769,68.800385 146.719009,74.484993 148.038177,80.525543 
	C143.414413,80.016655 141.967789,77.804359 142.556366,72.641380 
	C143.067734,68.155449 141.031845,63.379128 140.089722,58.342346 
z"/>
<path fill="#4D125E" opacity="1.000000" stroke="none" 
	d="
M103.490547,98.881264 
	C104.824890,101.705017 105.768158,104.561630 106.859726,107.753143 
	C99.542847,110.874680 99.610497,110.670845 97.710709,104.951347 
	C95.796021,99.186989 99.835365,99.594452 103.490547,98.881264 
z"/>
<path fill="#7FBFC5" opacity="1.000000" stroke="none" 
	d="
M28.615463,124.103653 
	C28.632019,125.735672 28.318638,127.468781 27.600389,129.679062 
	C21.980288,137.928040 21.089708,146.738159 21.036697,156.154266 
	C21.019060,157.358643 21.014721,158.161316 21.010380,158.964005 
	C20.824087,159.841934 20.637793,160.719879 20.186447,161.809860 
	C17.963554,148.366531 20.005068,135.595703 28.615463,124.103653 
z"/>
<path fill="#00166E" opacity="1.000000" stroke="none" 
	d="
M151.817230,71.649796 
	C152.292191,74.411682 152.604095,76.816078 152.898178,79.623093 
	C152.472992,80.021370 152.065628,80.017021 151.352905,80.016144 
	C149.031128,70.885635 147.014664,61.751663 145.013199,52.190361 
	C147.236847,58.272785 149.445496,64.782547 151.817230,71.649796 
z"/>
<path fill="#0D0B62" opacity="1.000000" stroke="none" 
	d="
M135.987595,170.301941 
	C138.035492,170.350891 140.082870,170.685654 142.527267,171.026154 
	C144.181198,171.692215 145.379135,172.752289 146.704590,172.947815 
	C155.218536,174.203674 163.760437,175.270096 172.594650,176.660736 
	C162.698181,177.621704 152.629898,176.996597 142.217651,173.754913 
	C141.120285,173.415848 140.601654,173.296402 140.083008,173.176956 
	C138.864029,172.660904 137.645035,172.144867 136.201706,171.394043 
	C135.980591,170.968765 135.983826,170.778259 135.987595,170.301941 
z"/>
<path fill="#B31C57" opacity="1.000000" stroke="none" 
	d="
M168.963516,193.890625 
	C167.577881,193.931976 166.192230,193.973312 164.391953,194.058289 
	C163.527924,194.043198 163.078552,193.984467 162.377686,193.473328 
	C162.087585,191.359802 162.048981,189.698654 162.414185,188.041229 
	C167.220642,188.994507 171.623291,189.944061 175.713806,191.072876 
	C173.255646,192.131638 171.109573,193.011139 168.963516,193.890625 
z"/>
<path fill="#02246C" opacity="1.000000" stroke="none" 
	d="
M140.684174,130.755554 
	C140.245148,132.667068 139.587204,134.427979 138.927902,136.540955 
	C136.674515,140.013275 134.422470,143.133499 131.661896,146.546143 
	C130.639771,147.091476 130.126175,147.344376 129.425903,147.417725 
	C129.114075,147.119293 128.988892,147.000381 128.863708,146.881454 
	C132.225800,141.163574 135.587906,135.445679 139.007660,129.370911 
	C139.531952,129.544327 139.998596,130.074631 140.684174,130.755554 
z"/>
<path fill="#B4245D" opacity="1.000000" stroke="none" 
	d="
M162.010376,188.037521 
	C162.048981,189.698654 162.087585,191.359802 162.064972,193.341614 
	C161.555695,193.686768 161.107620,193.711227 160.327271,193.682678 
	C160.108536,191.797379 160.222061,189.965103 160.922089,188.063477 
	C161.675842,188.008606 161.843109,188.023071 162.010376,188.037521 
z"/>
<path fill="#0A297C" opacity="1.000000" stroke="none" 
	d="
M162.919128,48.810394 
	C161.488525,46.997330 160.102539,44.807938 158.892212,42.284714 
	C159.914673,42.497585 160.761459,43.044300 161.864319,43.286049 
	C162.120361,42.981091 162.068359,43.024399 161.705582,43.197258 
	C161.900101,44.553898 162.457382,45.737675 163.014679,46.921452 
	C162.997696,47.425659 162.980713,47.929863 162.919128,48.810394 
z"/>
<path fill="#79D3F8" opacity="1.000000" stroke="none" 
	d="
M163.350143,46.875618 
	C162.457382,45.737675 161.900101,44.553898 161.698151,43.164387 
	C162.597519,44.249027 163.141556,45.539406 163.350143,46.875618 
z"/>
<path fill="#EFB5C8" opacity="1.000000" stroke="none" 
	d="
M194.124619,109.512283 
	C193.646927,109.657188 193.031815,109.501945 192.259613,109.056335 
	C192.730759,108.914696 193.358978,109.063416 194.124619,109.512283 
z"/>
<path fill="#0A297C" opacity="1.000000" stroke="none" 
	d="
M163.785782,50.058990 
	C164.205338,49.954166 164.661469,49.819088 165.117599,49.684006 
	C164.840134,49.799385 164.562683,49.914764 164.040283,50.066120 
	C163.795334,50.102097 163.822357,50.028732 163.785782,50.058990 
z"/>
<path fill="#BA7099" opacity="1.000000" stroke="none" 
	d="
M188.186508,103.626556 
	C187.691467,103.627930 187.181152,103.360283 186.753922,102.797211 
	C187.281754,102.787041 187.726486,103.072289 188.186508,103.626556 
z"/>
<path fill="#6FBCE6" opacity="1.000000" stroke="none" 
	d="
M69.753510,61.958481 
	C69.986366,62.087254 69.960388,62.350063 69.706375,62.757713 
	C69.405457,62.638924 69.410904,62.368916 69.753510,61.958481 
z"/>
<path fill="#6FBCE6" opacity="1.000000" stroke="none" 
	d="
M70.106644,60.242161 
	C70.502487,60.235413 70.554489,60.511711 70.212204,60.914444 
	C70.055710,60.829979 70.037338,60.658089 70.106644,60.242161 
z"/>
<path fill="#040405" opacity="1.000000" stroke="none" 
	d="
M396.545471,58.388229 
	C401.906494,54.992638 406.974670,54.994041 411.725769,58.587646 
	C415.808228,61.675526 417.168732,66.012001 416.173218,71.011955 
	C415.162384,76.088989 411.945312,79.171928 407.052765,80.528168 
	C401.865845,81.965996 396.084076,79.538094 393.285370,74.860222 
	C390.238037,69.766800 391.338593,63.717312 396.545471,58.388229 
z"/>
<path fill="#080A0B" opacity="1.000000" stroke="none" 
	d="
M348.476990,62.209000 
	C348.477051,60.267441 348.477051,58.801361 348.477051,57.125374 
	C354.560364,56.409355 360.147186,56.127129 364.037994,61.486355 
	C366.926880,65.465607 367.100677,69.931953 364.789703,74.148300 
	C361.329681,80.461021 355.300140,80.475342 348.476959,79.850990 
	C348.476959,74.131706 348.476959,68.408096 348.476990,62.209000 
z"/>
<path fill="#18090D" opacity="1.000000" stroke="none" 
	d="
M273.858032,118.869186 
	C271.622101,119.369041 269.718414,119.632767 267.385742,119.955925 
	C267.385742,117.289154 267.385742,115.106667 267.385742,112.927887 
	C274.289948,111.712509 276.061401,113.212585 273.858032,118.869186 
z"/>
<path fill="#090305" opacity="1.000000" stroke="none" 
	d="
M268.193359,122.234390 
	C269.606964,122.160187 270.860901,121.774132 271.522491,122.236206 
	C272.928558,123.218269 274.026489,124.641479 275.250732,125.883835 
	C273.929993,127.051224 272.758911,128.518753 271.234924,129.278442 
	C270.250763,129.769043 268.749603,129.222580 266.851715,129.100433 
	C267.181213,126.650185 267.473236,124.478523 268.193359,122.234390 
z"/>
<path fill="#13070A" opacity="1.000000" stroke="none" 
	d="
M302.418640,112.868805 
	C303.697693,112.526299 304.895508,112.094185 305.614990,112.503296 
	C307.136597,113.368515 308.408386,114.673088 309.782654,115.797470 
	C308.296356,116.949188 306.902344,118.265114 305.281006,119.176613 
	C304.573730,119.574234 303.400543,119.143044 302.120697,119.070107 
	C302.120697,116.985939 302.120697,115.073128 302.418640,112.868805 
z"/>
<path fill="#080304" opacity="1.000000" stroke="none" 
	d="
M373.273743,115.777328 
	C376.721130,124.668785 373.185852,129.788101 364.311432,129.017776 
	C364.311432,123.790436 364.311432,118.532768 364.311432,112.850891 
	C367.704285,112.106041 370.693909,112.492165 373.273743,115.777328 
z"/>
<path fill="#BE759C" opacity="1.000000" stroke="none" 
	d="
M169.214615,194.162613 
	C171.109573,193.011139 173.255646,192.131638 176.090195,191.074982 
	C180.523743,189.529907 184.268799,188.161972 188.013855,186.794037 
	C189.091461,187.185715 190.169067,187.577408 191.620758,187.969345 
	C185.027893,192.015945 177.594528,194.437027 169.214615,194.162613 
z"/>
<path fill="#BE759C" opacity="1.000000" stroke="none" 
	d="
M192.182220,187.879654 
	C192.086075,187.681030 192.278717,187.435028 192.764542,187.148895 
	C192.850830,187.342957 192.655273,187.584122 192.182220,187.879654 
z"/>
<path fill="#EFB5C8" opacity="1.000000" stroke="none" 
	d="
M199.095825,183.949051 
	C199.070801,183.775970 199.307922,183.507217 199.786148,183.119614 
	C199.804153,183.284973 199.581070,183.569183 199.095825,183.949051 
z"/>
<path fill="#EFB5C8" opacity="1.000000" stroke="none" 
	d="
M200.308868,183.047699 
	C200.317032,182.923615 200.633347,182.815002 201.091156,182.863297 
	C201.027435,183.034531 200.822235,183.048843 200.308868,183.047699 
z"/>
<path fill="#02B6FC" opacity="1.000000" stroke="none" 
	d="
M83.882294,104.802673 
	C83.947327,108.094170 83.756310,111.174950 83.453140,114.585663 
	C79.436661,105.824173 75.532333,96.732742 71.402702,87.376282 
	C71.365334,85.334450 71.553261,83.557655 71.714951,81.405869 
	C74.167740,65.498642 77.688889,50.286469 88.162407,37.894787 
	C96.891624,27.566872 107.430222,19.707878 121.661201,19.953861 
	C131.925797,20.131287 141.027969,24.347395 148.968185,31.902138 
	C149.803848,32.695221 150.427902,32.830921 151.051941,32.966621 
	C151.051941,32.966625 151.001572,32.998142 150.920776,33.322220 
	C151.246170,33.757782 151.652359,33.869267 152.058533,33.980751 
	C152.058533,33.980751 152.001709,33.998272 151.914871,34.325127 
	C152.238098,34.761307 152.648178,34.870628 153.058243,34.979950 
	C153.058243,34.979946 153.001724,34.998245 152.913300,35.330433 
	C153.235443,35.767384 153.645981,35.872147 154.056534,35.976913 
	C154.056534,35.976910 154.000366,35.998394 153.766022,36.262112 
	C153.653702,37.019333 153.775742,37.512840 153.897766,38.006344 
	C153.941742,39.532349 153.888901,41.068447 154.046814,42.582573 
	C154.658829,48.450893 155.337906,54.312222 155.990662,60.651146 
	C153.416138,55.564625 151.051376,49.894848 148.229630,44.462444 
	C140.594772,29.763884 122.649445,22.991491 107.271866,29.074163 
	C99.308266,32.224201 93.715996,38.421162 90.149239,45.858166 
	C86.735397,52.976315 84.673523,60.742867 81.982605,69.051376 
	C81.679726,75.570213 81.411674,81.262123 81.143631,86.954025 
	C81.184135,87.759895 81.224640,88.565758 81.355331,90.009544 
	C81.809875,90.939621 82.174248,91.231781 82.538620,91.523941 
	C82.901154,95.879944 83.263695,100.235954 83.882294,104.802673 
z"/>
<path fill="#004A9D" opacity="1.000000" stroke="none" 
	d="
M81.519836,86.846748 
	C81.411674,81.262123 81.679726,75.570213 81.989853,69.450546 
	C81.986641,74.928345 81.941338,80.833908 81.519836,86.846748 
z"/>
<path fill="#004A9D" opacity="1.000000" stroke="none" 
	d="
M82.588791,91.377182 
	C82.174248,91.231781 81.809875,90.939621 81.499031,90.389023 
	C81.914688,90.497192 82.276825,90.863808 82.588791,91.377182 
z"/>
<path fill="#01DAAA" opacity="1.000000" stroke="none" 
	d="
M115.036636,176.311172 
	C113.212837,177.408600 111.389053,178.506042 108.945007,179.853134 
	C104.954308,181.516098 101.618713,183.020294 98.207649,184.327576 
	C79.596992,191.460098 61.043301,193.218552 42.899940,182.998444 
	C33.033192,177.440536 26.170538,169.507767 24.903425,157.730530 
	C24.492418,153.910400 24.213058,150.076111 24.040806,145.888641 
	C25.178686,142.142120 26.149244,138.755264 27.119801,135.368393 
	C29.381809,133.094635 31.428078,130.534927 33.962826,128.622696 
	C36.847023,126.446823 40.167427,124.849167 43.678192,123.013367 
	C40.626381,130.321152 35.759418,137.292618 34.030674,144.970657 
	C28.746544,168.439651 46.363941,186.980743 72.025620,183.719269 
	C87.068512,181.807388 100.001091,174.976318 111.369331,165.135406 
	C115.969261,161.153488 120.312050,156.874512 125.250328,152.349686 
	C126.390205,151.459671 127.051598,150.950699 127.808655,150.821121 
	C128.312561,152.148788 128.720825,153.097046 129.129089,154.045303 
	C125.734879,159.865143 122.346542,165.688416 118.940704,171.501434 
	C118.362938,172.487564 117.709915,173.429596 117.075356,174.750519 
	C117.059052,175.109024 117.021973,175.067322 116.720444,175.074722 
	C115.958160,175.491806 115.497398,175.901489 115.036636,176.311172 
z"/>
<path fill="#02246C" opacity="1.000000" stroke="none" 
	d="
M127.712997,150.441711 
	C127.051598,150.950699 126.390205,151.459671 125.431686,152.073624 
	C125.913429,151.116577 126.692299,150.054565 127.797562,149.048096 
	C128.123947,149.103607 128.138657,149.116348 128.094971,149.345642 
	C127.922707,149.857712 127.809944,150.146622 127.712997,150.441711 
z"/>
<path fill="#02246C" opacity="1.000000" stroke="none" 
	d="
M128.121246,149.102173 
	C128.212570,148.502365 128.306595,147.903976 128.632172,147.093536 
	C128.988892,147.000381 129.114075,147.119293 129.264618,147.631866 
	C128.906204,148.389145 128.522430,148.752747 128.138657,149.116348 
	C128.138657,149.116348 128.123947,149.103607 128.121246,149.102173 
z"/>
<path fill="#01DAAA" opacity="1.000000" stroke="none" 
	d="
M44.246269,122.945221 
	C44.217171,122.775787 44.434910,122.500786 44.894653,122.108780 
	C44.922138,122.274406 44.707619,122.557022 44.246269,122.945221 
z"/>
<path fill="#E02155" opacity="1.000000" stroke="none" 
	d="
M188.223709,186.545441 
	C184.268799,188.161972 180.523743,189.529907 176.402313,190.895721 
	C171.623291,189.944061 167.220642,188.994507 162.414185,188.041229 
	C161.843109,188.023071 161.675842,188.008606 161.256989,187.982483 
	C157.790039,186.197922 154.574661,184.425003 151.207031,182.352798 
	C157.669434,182.421616 164.285568,183.123993 170.898514,183.095276 
	C190.857040,183.008606 205.607498,162.995300 200.418823,143.769775 
	C196.943741,130.893585 188.305145,121.985680 178.391235,113.196320 
	C177.707092,112.481621 177.353958,112.208382 177.000824,111.935150 
	C177.000824,111.935143 177.008606,111.998863 176.894745,111.696869 
	C175.864349,110.909378 174.947815,110.423889 174.031296,109.938393 
	C174.031296,109.938393 173.993820,109.989403 173.889313,109.658470 
	C166.760986,106.107643 159.737167,102.887741 152.713364,99.667847 
	C148.763443,98.498970 144.781311,97.425568 140.880814,96.110130 
	C139.489563,95.640930 138.296097,94.585213 136.961426,93.414894 
	C146.004684,93.352402 155.098862,93.672226 164.638306,93.966858 
	C165.083557,93.941658 165.040894,93.985275 165.192444,94.207718 
	C165.899384,94.609810 166.454788,94.789452 167.010178,94.969093 
	C168.137543,95.566689 169.264923,96.164284 170.884491,97.095657 
	C171.918533,97.637650 172.460373,97.845879 173.002228,98.054108 
	C173.002228,98.054100 172.979034,98.000793 172.953796,98.015396 
	C178.833023,103.334045 184.931198,108.440010 190.600983,113.984085 
	C201.816803,124.951302 207.692429,138.587341 207.687454,154.130508 
	C207.682922,168.285248 201.735992,179.697723 188.223709,186.545441 
z"/>
<path fill="#5D135D" opacity="1.000000" stroke="none" 
	d="
M140.049133,173.536499 
	C140.601654,173.296402 141.120285,173.415848 141.815842,173.742004 
	C144.206894,176.408371 146.421051,178.868073 148.781738,181.610016 
	C142.496506,181.443100 138.686050,185.832443 134.280457,189.821991 
	C135.995270,184.615952 138.005249,179.255997 140.049133,173.536499 
z"/>
<path fill="#230D61" opacity="1.000000" stroke="none" 
	d="
M152.239380,99.782906 
	C159.737167,102.887741 166.760986,106.107643 173.917175,109.643692 
	C171.469788,108.999977 168.853958,108.126060 166.317902,107.061989 
	C161.307404,104.959679 156.341034,102.752121 151.085175,100.350571 
	C151.131058,100.041374 151.448227,99.969673 152.239380,99.782906 
z"/>
<path fill="#230D61" opacity="1.000000" stroke="none" 
	d="
M174.045990,110.293167 
	C174.947815,110.423889 175.864349,110.909378 176.923645,111.682915 
	C176.064514,111.529953 175.062607,111.088943 174.045990,110.293167 
z"/>
<path fill="#230D61" opacity="1.000000" stroke="none" 
	d="
M177.109680,112.238258 
	C177.353958,112.208382 177.707092,112.481621 178.090729,113.112144 
	C177.820328,113.160072 177.519440,112.850723 177.109680,112.238258 
z"/>
<path fill="#040F62" opacity="1.000000" stroke="none" 
	d="
M59.365028,130.065628 
	C60.462593,128.773453 61.882008,127.393517 63.671684,126.027786 
	C62.590260,127.353943 61.138569,128.665909 59.365028,130.065628 
z"/>
<path fill="#040F62" opacity="1.000000" stroke="none" 
	d="
M54.319698,135.883743 
	C55.151875,134.376831 56.282650,132.728714 57.783485,131.061798 
	C56.975128,132.609512 55.796715,134.176025 54.319698,135.883743 
z"/>
<path fill="#040F62" opacity="1.000000" stroke="none" 
	d="
M88.032845,157.332977 
	C88.724396,157.745941 89.423256,158.478821 90.125061,159.545593 
	C89.432060,159.137268 88.736107,158.395096 88.032845,157.332977 
z"/>
<path fill="#040F62" opacity="1.000000" stroke="none" 
	d="
M85.884529,153.427094 
	C86.517029,153.893265 87.146324,154.690048 87.778275,155.815552 
	C87.147720,155.348755 86.514526,154.553238 85.884529,153.427094 
z"/>
<path fill="#0A297C" opacity="1.000000" stroke="none" 
	d="
M159.080414,41.571423 
	C158.056412,41.165424 157.052750,40.392143 156.045441,39.262260 
	C157.061447,39.671818 158.081100,40.437977 159.080414,41.571423 
z"/>
<path fill="#0A297C" opacity="1.000000" stroke="none" 
	d="
M154.191544,38.101940 
	C153.775742,37.512840 153.653702,37.019333 153.787537,36.241089 
	C154.910095,36.772350 155.776794,37.588356 156.370789,38.684429 
	C155.560501,38.708847 155.022903,38.453194 154.191544,38.101940 
z"/>
<path fill="#0A297C" opacity="1.000000" stroke="none" 
	d="
M151.013763,32.629940 
	C150.427902,32.830921 149.803848,32.695221 149.136810,32.193527 
	C149.721054,31.982779 150.348312,32.138020 151.013763,32.629940 
z"/>
<path fill="#0A297C" opacity="1.000000" stroke="none" 
	d="
M153.061020,34.674271 
	C152.648178,34.870628 152.238098,34.761307 151.924057,34.296860 
	C152.367981,34.084015 152.715897,34.226303 153.061020,34.674271 
z"/>
<path fill="#0A297C" opacity="1.000000" stroke="none" 
	d="
M152.060928,33.674965 
	C151.652359,33.869267 151.246170,33.757782 150.929611,33.293861 
	C151.367264,33.084015 151.715286,33.226601 152.060928,33.674965 
z"/>
<path fill="#0A297C" opacity="1.000000" stroke="none" 
	d="
M154.059662,35.671692 
	C153.645981,35.872147 153.235443,35.767384 152.922516,35.302200 
	C153.367691,35.083344 153.715225,35.224903 154.059662,35.671692 
z"/>
<path fill="#2FD6B6" opacity="1.000000" stroke="none" 
	d="
M128.094971,149.345642 
	C128.522430,148.752747 128.906204,148.389145 129.451263,147.811417 
	C130.126175,147.344376 130.639771,147.091476 131.444275,146.818024 
	C135.381104,150.787720 134.878036,152.754715 129.510284,154.025818 
	C128.720825,153.097046 128.312561,152.148788 127.808655,150.821121 
	C127.809944,150.146622 127.922707,149.857712 128.094971,149.345642 
z"/>
<path fill="#7EECD4" opacity="1.000000" stroke="none" 
	d="
M23.873482,146.248291 
	C24.213058,150.076111 24.492418,153.910400 24.903425,157.730530 
	C26.170538,169.507767 33.033192,177.440536 42.899940,182.998444 
	C61.043301,193.218552 79.596992,191.460098 98.207649,184.327576 
	C101.618713,183.020294 104.954308,181.516098 108.691620,180.052979 
	C106.719933,182.463593 104.381363,184.924011 101.934662,187.725616 
	C94.146049,189.894592 86.553307,192.372330 78.767967,193.423325 
	C58.683044,196.134766 33.709682,188.883209 24.535824,168.909439 
	C23.171471,165.938919 22.507256,162.646820 21.264755,159.233749 
	C21.014721,158.161316 21.019060,157.358643 21.280663,155.902847 
	C22.316444,152.249252 23.094963,149.248779 23.873482,146.248291 
z"/>
<path fill="#5FB2B7" opacity="1.000000" stroke="none" 
	d="
M24.040806,145.888641 
	C23.094963,149.248779 22.316444,152.249252 21.293961,155.501160 
	C21.089708,146.738159 21.980288,137.928040 27.525955,130.054749 
	C27.465250,131.593307 27.074110,133.233353 26.901386,135.120880 
	C26.149244,138.755264 25.178686,142.142120 24.040806,145.888641 
z"/>
<path fill="#B61D58" opacity="1.000000" stroke="none" 
	d="
M166.831543,94.735008 
	C166.454788,94.789452 165.899384,94.609810 165.176773,94.182083 
	C165.557327,94.122978 166.105118,94.311951 166.831543,94.735008 
z"/>
<path fill="#F08DA8" opacity="1.000000" stroke="none" 
	d="
M172.841248,97.799789 
	C172.460373,97.845879 171.918533,97.637650 171.186127,97.199402 
	C171.557159,97.161407 172.118713,97.353447 172.841248,97.799789 
z"/>
<path fill="#02B19D" opacity="1.000000" stroke="none" 
	d="
M115.330139,176.208740 
	C115.497398,175.901489 115.958160,175.491806 116.742287,175.058136 
	C116.584976,175.391541 116.104309,175.748917 115.330139,176.208740 
z"/>
</svg>