<?xml version="1.0" standalone="no"?>
<!DOCTYPE svg PUBLIC "-//W3C//DTD SVG 20010904//EN"
 "http://www.w3.org/TR/2001/REC-SVG-20010904/DTD/svg10.dtd">
<svg version="1.0" xmlns="http://www.w3.org/2000/svg"
 width="500.000000pt" height="211.000000pt" viewBox="0 0 500.000000 211.000000"
 preserveAspectRatio="xMidYMid meet">

<g transform="translate(0.000000,211.000000) scale(0.100000,-0.100000)"
fill="#000000" stroke="none">
<path d="M0 1055 l0 -1055 2500 0 2500 0 0 1055 0 1055 -2500 0 -2500 0 0
-1055z m1289 926 c82 -26 147 -69 223 -149 51 -55 151 -212 135 -212 -3 0 -19
22 -37 49 -72 113 -260 252 -340 251 -15 0 0 -9 40 -23 62 -21 146 -73 182
-114 29 -32 58 -138 58 -210 l-1 -68 -35 85 c-19 47 -51 108 -72 135 -81 108
-259 157 -380 105 -101 -43 -197 -177 -239 -331 -28 -103 -23 -336 10 -459 14
-52 28 -103 33 -113 6 -17 5 -18 -17 -6 -13 6 -31 15 -39 19 -9 5 -15 21 -15
41 0 19 -10 53 -22 76 -12 22 -34 74 -48 115 l-26 73 3 -138 c2 -75 2 -137 1
-137 -6 0 -25 121 -33 211 -26 304 69 584 244 715 128 97 249 124 375 85z
m311 -351 c0 -13 -7 -20 -20 -20 -13 0 -20 7 -20 20 0 13 7 20 20 20 13 0 20
-7 20 -20z m1638 -10 c47 -22 52 -37 20 -68 -20 -18 -25 -19 -42 -6 -27 19
-90 18 -107 -2 -20 -24 0 -46 69 -72 103 -39 138 -93 105 -160 -29 -57 -64
-77 -136 -77 -39 1 -73 7 -92 18 -63 35 -62 33 -31 66 l29 30 25 -19 c35 -28
107 -27 122 1 18 32 6 45 -68 73 -85 33 -117 63 -117 115 0 100 113 151 223
101z m891 -6 c77 -39 106 -87 106 -179 0 -83 -22 -126 -88 -168 -98 -64 -212
-42 -291 56 -28 35 -31 45 -31 111 0 62 4 78 27 113 34 52 113 93 178 93 30 0
65 -9 99 -26z m-1849 -112 c21 -68 40 -125 42 -127 2 -3 21 54 43 125 l38 130
42 0 41 0 39 -130 c21 -71 40 -128 42 -126 2 2 21 59 42 127 l37 124 42 3 c23
2 42 0 42 -4 0 -4 -28 -92 -62 -196 l-62 -188 -40 0 -41 0 -34 113 c-19 61
-38 118 -41 126 -5 9 -23 -34 -47 -110 l-39 -124 -41 -3 -42 -3 -61 188 c-33
103 -60 191 -60 196 0 4 19 7 41 5 l41 -3 38 -123z m620 -67 l0 -195 -40 0
-40 0 0 195 0 195 40 0 40 0 0 -195z m725 176 c139 -64 154 -248 27 -336 -41
-28 -50 -30 -153 -33 l-109 -4 0 196 0 196 98 0 c73 0 107 -5 137 -19z m863
-61 c35 -44 66 -80 70 -79 4 0 35 36 70 80 59 75 65 79 102 79 l40 0 0 -195 0
-195 -45 0 -45 0 0 126 0 127 -61 -77 -61 -76 -61 77 -62 77 -3 -127 -3 -127
-39 0 -40 0 0 195 0 195 38 0 c34 0 41 -6 100 -80z m-2793 -121 l5 -44 -15 50
c-17 57 -19 77 -5 54 5 -9 12 -36 15 -60z m-84 -195 c164 -72 276 -149 378
-261 190 -207 214 -499 55 -658 -92 -92 -252 -157 -382 -154 l-57 1 47 8 c165
28 322 126 376 235 61 123 51 278 -27 434 -61 120 -256 297 -433 392 -101 54
-78 56 43 3z m-1137 -156 c19 -72 2 -137 -55 -210 -16 -20 -44 -67 -61 -105
-29 -61 -33 -78 -33 -158 0 -73 4 -99 23 -140 142 -310 629 -215 945 185 65
82 124 120 189 120 64 0 70 -6 49 -48 -62 -119 -197 -271 -326 -367 -348 -257
-694 -284 -911 -70 -83 82 -107 144 -108 280 0 77 5 117 23 175 19 63 84 200
95 200 2 0 -7 -27 -21 -61 -32 -81 -53 -181 -52 -254 2 -109 14 -121 15 -14 2
117 27 209 91 331 34 65 106 158 123 158 4 0 10 -10 14 -22z m2270 -79 c30
-23 33 -45 10 -70 -15 -17 -15 -19 0 -34 41 -41 2 -86 -79 -93 -37 -3 -55 -1
-55 7 0 6 5 11 10 11 6 0 10 37 10 90 0 53 -4 90 -10 90 -5 0 -10 5 -10 10 0
20 96 11 124 -11z m336 8 c30 -15 38 -52 16 -76 -14 -16 -14 -21 1 -62 10 -24
22 -47 27 -51 14 -10 0 -22 -17 -15 -8 3 -17 21 -21 41 -8 43 -29 66 -62 66
-22 0 -24 -4 -24 -45 0 -33 4 -45 15 -45 8 0 15 -4 15 -10 0 -5 -16 -10 -35
-10 -19 0 -35 5 -35 10 0 6 5 10 10 10 6 0 10 37 10 90 0 53 -4 90 -10 90 -5
0 -10 5 -10 10 0 14 90 12 120 -3z m310 3 c0 -5 -4 -10 -10 -10 -6 0 -10 -37
-10 -90 0 -53 4 -90 10 -90 6 0 10 -4 10 -10 0 -5 -13 -10 -30 -10 -16 0 -30
5 -30 10 0 6 5 10 10 10 6 0 10 37 10 90 0 53 -4 90 -10 90 -5 0 -10 5 -10 10
0 6 14 10 30 10 17 0 30 -4 30 -10z m342 -29 c54 -60 28 -149 -50 -171 -47
-13 -92 -13 -92 0 0 6 5 10 10 10 6 0 10 37 10 90 0 53 -4 90 -10 90 -5 0 -10
5 -10 11 0 8 19 10 57 7 48 -4 61 -10 85 -37z m372 18 c32 -25 27 -38 -6 -15
-32 22 -77 20 -105 -6 -32 -30 -32 -102 -1 -135 27 -29 80 -31 108 -3 28 28
25 40 -10 40 -16 0 -30 5 -30 10 0 6 18 10 40 10 l40 0 -1 -52 c-1 -41 -3 -46
-8 -24 -6 27 -7 28 -21 12 -36 -44 -113 -39 -144 9 -18 27 -21 97 -6 125 13
25 58 49 91 50 15 0 38 -10 53 -21z m396 -9 c0 -16 -4 -30 -10 -30 -5 0 -10 9
-10 20 0 17 -7 20 -45 20 l-45 0 0 -40 c0 -39 1 -40 35 -40 19 0 35 -4 35 -10
0 -5 -16 -10 -35 -10 -34 0 -35 -1 -35 -40 l0 -40 45 0 c38 0 45 3 45 20 0 11
5 20 10 20 6 0 10 -13 10 -30 l0 -30 -75 0 c-43 0 -75 4 -75 10 0 6 5 10 10
10 6 0 10 37 10 90 0 53 -4 90 -10 90 -5 0 -10 5 -10 10 0 6 32 10 75 10 l75
0 0 -30z"/>
<path d="M3969 1545 c-83 -45 -80 -178 5 -219 19 -9 44 -16 55 -16 37 0 86 26
106 56 21 33 24 98 6 132 -29 54 -116 78 -172 47z"/>
<path d="M3470 1434 l0 -116 61 4 c54 4 66 9 90 36 23 26 29 42 29 78 0 39 -5
51 -34 80 -31 31 -40 34 -90 34 l-56 0 0 -116z"/>
<path d="M251 490 c0 -8 4 -22 9 -30 12 -18 12 -2 0 25 -6 13 -9 15 -9 5z"/>
<path d="M2660 960 l0 -41 36 3 c22 2 42 10 48 21 17 26 -5 51 -48 55 l-36 3
0 -41z"/>
<path d="M2660 860 c0 -39 1 -40 34 -40 41 0 60 21 52 55 -5 21 -12 25 -46 25
-40 0 -40 0 -40 -40z"/>
<path d="M3000 961 c0 -40 1 -41 34 -41 39 0 59 19 54 52 -2 19 -10 23 -45 26
l-43 3 0 -40z"/>
<path d="M3630 910 l0 -90 30 0 c19 0 40 9 55 25 54 53 18 155 -55 155 l-30 0
0 -90z"/>
</g>
</svg>
