<?xml version="1.0" standalone="no"?>
<!DOCTYPE svg PUBLIC "-//W3C//DTD SVG 20010904//EN"
 "http://www.w3.org/TR/2001/REC-SVG-20010904/DTD/svg10.dtd">
<svg version="1.0" xmlns="http://www.w3.org/2000/svg"
 width="500.000000pt" height="211.000000pt" viewBox="0 0 500.000000 211.000000"
 preserveAspectRatio="xMidYMid meet">
<metadata>
Created by potrace 1.16, written by Peter Selinger 2001-2019
</metadata>
<g transform="translate(0.000000,211.000000) scale(0.100000,-0.100000)"
fill="#000000" stroke="none">
<path d="M0 1055 l0 -1055 2500 0 2500 0 0 1055 0 1055 -2500 0 -2500 0 0
-1055z m1289 926 c34 -10 83 -33 110 -51 73 -46 171 -155 214 -238 21 -39 36
-72 34 -72 -2 0 -21 25 -42 55 -80 117 -224 224 -321 240 -29 5 -23 1 26 -17
62 -22 146 -75 182 -115 9 -10 25 -45 36 -78 19 -54 23 -60 46 -57 20 3 26 -1
26 -17 0 -26 -17 -36 -35 -21 -13 11 -15 4 -15 -46 l-1 -59 -35 85 c-19 47
-51 108 -72 135 -81 108 -259 157 -380 105 -100 -43 -197 -178 -239 -331 -28
-103 -23 -335 10 -459 14 -52 28 -103 33 -113 6 -17 5 -18 -17 -6 -13 6 -31
15 -39 19 -9 5 -15 21 -15 41 0 19 -10 53 -22 76 -12 22 -34 74 -48 115 l-26
73 3 -137 c3 -158 -5 -149 -29 31 -13 104 -14 144 -5 231 27 254 113 432 257
535 125 90 242 114 364 76z m1949 -361 c47 -22 52 -37 20 -68 -20 -18 -25 -19
-42 -6 -27 19 -90 18 -107 -2 -20 -24 0 -46 69 -72 103 -39 138 -93 105 -160
-29 -57 -64 -77 -136 -77 -39 1 -73 7 -92 18 -63 35 -62 33 -31 66 l29 30 25
-19 c35 -28 107 -27 122 1 18 32 6 45 -68 73 -85 33 -117 63 -117 115 0 100
113 151 223 101z m891 -6 c77 -39 106 -87 106 -179 0 -83 -22 -126 -88 -168
-98 -64 -212 -42 -291 56 -28 35 -31 45 -31 111 0 62 4 78 27 113 34 52 113
93 178 93 30 0 65 -9 99 -26z m-1849 -112 c21 -68 40 -125 42 -127 2 -3 21 54
43 125 l38 130 42 0 41 0 39 -130 c21 -71 40 -128 42 -126 2 2 21 59 42 127
l37 124 42 3 c23 2 42 0 42 -4 0 -4 -28 -92 -62 -196 l-62 -188 -40 0 -41 0
-34 113 c-19 61 -38 118 -41 126 -5 9 -23 -34 -47 -110 l-39 -124 -41 -3 -42
-3 -61 188 c-33 103 -60 191 -60 196 0 4 19 7 41 5 l41 -3 38 -123z m620 -67
l0 -195 -40 0 -40 0 0 195 0 195 40 0 40 0 0 -195z m725 176 c139 -64 154
-248 27 -336 -41 -28 -50 -30 -153 -33 l-109 -4 0 196 0 196 98 0 c73 0 107
-5 137 -19z m863 -61 c35 -44 66 -80 70 -79 4 0 35 36 70 80 59 75 65 79 102
79 l40 0 0 -195 0 -195 -45 0 -45 0 0 126 0 127 -61 -77 -61 -76 -61 77 -62
77 -3 -127 -3 -127 -39 0 -40 0 0 195 0 195 38 0 c34 0 41 -6 100 -80z m-2793
-121 l5 -44 -15 50 c-17 57 -19 77 -5 54 5 -9 12 -36 15 -60z m-190 -153 c310
-104 543 -301 621 -527 29 -83 26 -244 -5 -324 -57 -143 -252 -260 -446 -266
-36 -1 -68 1 -72 4 -3 4 8 7 25 7 89 0 282 89 346 160 66 73 80 119 81 250 0
135 -20 203 -91 312 -99 148 -341 328 -539 399 -91 32 -24 20 80 -15z m-131
-71 c23 -23 10 -42 -24 -37 -34 5 -34 6 -20 33 13 23 24 24 44 4z m1374 -201
c24 -17 30 -62 10 -82 -9 -9 -9 -15 0 -24 20 -20 14 -65 -10 -82 -25 -18 -138
-22 -138 -6 0 6 5 10 10 10 6 0 10 37 10 90 0 53 -4 90 -10 90 -5 0 -10 5 -10
10 0 16 113 12 138 -6z m353 -1 c17 -17 14 -65 -5 -79 -13 -9 -15 -17 -7 -31
13 -24 41 -85 41 -90 0 -1 -9 -3 -19 -3 -15 0 -21 10 -26 40 -4 24 -15 46 -28
55 -37 26 -47 19 -47 -30 0 -25 5 -45 10 -45 6 0 10 -4 10 -10 0 -5 -16 -10
-35 -10 -19 0 -35 5 -35 10 0 6 5 10 10 10 6 0 10 37 10 90 0 53 -4 90 -10 90
-5 0 -10 5 -10 11 0 15 126 7 141 -8z m289 7 c0 -5 -4 -10 -10 -10 -6 0 -10
-37 -10 -90 0 -53 4 -90 10 -90 6 0 10 -4 10 -10 0 -5 -16 -10 -35 -10 -19 0
-35 5 -35 10 0 6 5 10 10 10 6 0 10 37 10 90 0 53 -4 90 -10 90 -5 0 -10 5
-10 10 0 6 16 10 35 10 19 0 35 -4 35 -10z m327 -10 c70 -42 63 -154 -11 -185
-40 -17 -126 -20 -126 -5 0 6 5 10 10 10 6 0 10 37 10 90 0 53 -4 90 -10 90
-5 0 -10 5 -10 10 0 18 103 11 137 -10z m393 -2 c27 -17 31 -23 18 -26 -10 -2
-28 4 -40 12 -54 38 -118 -2 -118 -74 0 -80 75 -117 128 -62 l27 27 -32 3
c-49 5 -40 22 12 22 l45 0 0 -50 c0 -38 -4 -50 -15 -50 -9 0 -15 9 -15 23 0
12 -3 17 -8 11 -14 -22 -54 -36 -87 -30 -86 16 -110 139 -38 196 33 26 79 25
123 -2z m390 -8 c0 -16 -4 -30 -10 -30 -5 0 -10 9 -10 20 0 17 -7 20 -45 20
l-45 0 0 -40 c0 -39 1 -40 35 -40 19 0 35 -4 35 -10 0 -5 -16 -10 -35 -10 -34
0 -35 -1 -35 -40 l0 -40 45 0 c38 0 45 3 45 20 0 11 5 20 10 20 6 0 10 -13 10
-30 l0 -30 -75 0 c-43 0 -75 4 -75 10 0 6 5 10 10 10 6 0 10 37 10 90 0 53 -4
90 -10 90 -5 0 -10 5 -10 10 0 6 32 10 75 10 l75 0 0 -30z m-4211 -95 c-69
-156 -76 -342 -18 -457 29 -57 30 -46 2 22 -30 76 -34 213 -8 276 18 44 86
118 127 140 40 21 42 18 14 -19 -54 -70 -80 -146 -84 -245 -4 -88 -3 -96 27
-156 41 -85 95 -131 184 -158 87 -26 207 -21 311 13 145 48 311 170 436 322
35 42 65 77 67 77 2 0 -2 -10 -8 -22 -7 -12 -11 -40 -11 -61 2 -31 -2 -40 -18
-44 -11 -3 -34 -28 -51 -57 -17 -28 -55 -80 -83 -116 l-51 -65 40 24 c62 36
155 104 215 157 l55 49 -41 -48 c-138 -158 -376 -312 -564 -363 -100 -28 -276
-25 -355 6 -131 51 -226 136 -266 239 -32 81 -32 227 0 331 20 65 85 200 96
200 2 0 -5 -20 -16 -45z m61 -18 c0 -8 -3 -17 -7 -20 -9 -9 -34 13 -27 24 8
14 34 11 34 -4z m1604 -28 c-3 -5 -10 -7 -15 -3 -5 3 -7 10 -3 15 3 5 10 7 15
3 5 -3 7 -10 3 -15z m-9 -479 c3 -5 1 -10 -4 -10 -6 0 -11 5 -11 10 0 6 2 10
4 10 3 0 8 -4 11 -10z"/>
<path d="M3969 1545 c-83 -45 -80 -178 5 -219 19 -9 44 -16 55 -16 37 0 86 26
106 56 21 33 24 98 6 132 -29 54 -116 78 -172 47z"/>
<path d="M3470 1434 l0 -116 61 4 c54 4 66 9 90 36 23 26 29 42 29 78 0 39 -5
51 -34 80 -31 31 -40 34 -90 34 l-56 0 0 -116z"/>
<path d="M2660 960 c0 -39 1 -40 35 -40 30 0 55 19 55 44 0 15 -35 36 -61 36
-27 0 -29 -2 -29 -40z"/>
<path d="M2660 860 c0 -38 2 -40 29 -40 30 0 61 22 61 44 0 21 -23 36 -57 36
-32 0 -33 -1 -33 -40z"/>
<path d="M3010 960 c0 -34 3 -40 21 -40 31 0 59 18 59 38 0 26 -20 42 -52 42
-26 0 -28 -3 -28 -40z"/>
<path d="M3630 910 c0 -83 2 -90 20 -90 78 0 119 95 65 154 -16 17 -34 26 -55
26 l-30 0 0 -90z"/>
</g>
</svg>
